<svg viewBox="0 0 1806 2143" fill="none" role="img" aria-label="BioDize" xmlns="http://www.w3.org/2000/svg">
<title>BioDize</title>
<path d="M1102.32 1540.38L1350.15 1539.91C1429.03 1539.86 1488.22 1537.51 1566.67 1547.77C1623.28 1562.25 1652.97 1578.2 1699.02 1616.73C1722.37 1638.24 1735.47 1653.11 1752.8 1679.68C1827 1793.38 1805.91 1962.46 1698.49 2048.67C1648.25 2085.59 1626.59 2095.27 1566.82 2112.25C1531.31 2121.58 1425.56 2118.83 1384.06 2118.83L1103.48 2118.55C1105.37 1927.6 1102.9 1731.6 1102.32 1540.38Z" fill="url(#g)"/>
<path d="M387.352 363.061C370.479 380.197 363.386 401.721 363.017 425.394L362.609 426.819C358.916 450.233 360.686 534.7 360.724 563.5L360.906 840.1L363.578 1072.52C371.41 1060.36 391.582 1053.41 406.641 1045.51C404.19 1028.27 404.78 1010.28 403.869 994.225C400.008 926.472 437.815 951.406 479.747 948.298C527.39 944.764 489.113 872.857 512.892 847.664C525.558 834.249 554.708 848.326 570.924 845.16C620.548 838.839 582.568 797.43 603.417 771.067C619.167 762.746 771.234 762.626 782.428 776.232C785.881 788.821 787.2 822.729 780.293 832.297C761.536 858.296 665.803 837.012 634.605 843.558L634.187 843.646C621.788 846.24 619.309 846.759 611.402 855.946C604.664 863.783 606.064 907.93 608.726 914.089C621.239 943.013 664.288 918.242 692.344 931.402C705.423 944.884 701.5 967.151 701.562 987.391C701.303 999.664 698.665 1041.07 711.739 1047.51C813.88 1097.84 792.941 984.36 790.451 930.615C791.348 918.486 786.686 866.488 800.571 863.217C845.717 852.578 906.425 856.847 953.27 860.142L956.086 860.34C981.707 870.771 965.909 910.568 973.309 926.146C984.392 949.464 1056.06 943.426 1076.52 938.927C1097.26 934.371 1094.38 877.346 1087.69 864.69C1068.51 828.384 1002.03 873.725 983.323 834.58C977.644 821.885 977.611 778.385 982.263 765.129C984.464 762.587 989.567 756.942 993.533 756.957C1022.32 757.422 1075.35 748.995 1101.02 760.573C1124.74 771.273 1096.9 833.794 1120.99 845.448C1133.62 851.558 1172.54 851.707 1185.23 847.016C1208.68 838.345 1190.52 799.19 1201.08 782.534C1216.59 758.607 1270.19 780.836 1294.89 769.882C1321.93 757.892 1299.59 708.436 1310.09 687.448C1320.08 667.478 1358.41 680.278 1374.44 675.77C1408.42 666.212 1380.12 606.252 1395.81 582.497C1405.28 568.167 1432.54 577.639 1445.9 573.62C1476.81 564.33 1454.85 509.214 1466.29 486.985C1469.58 480.606 1474.5 480.472 1481.02 478.678C1494.47 478.371 1540.05 475.215 1550.09 483.412C1575.6 506.092 1539.3 552.047 1568.13 572.608C1584.55 583.02 1609.61 580.809 1627.35 580.656C1668.35 580.291 1682.77 581.711 1679.84 535.113C1678.7 516.984 1686.95 485.81 1666.39 476.333C1629.94 459.532 1656.58 416.061 1642.39 389.28C1632.5 370.6 1599.72 380.878 1583.15 375.329C1562.16 368.849 1562.09 336.193 1567.93 319.585C1576.79 294.358 1609.31 293.964 1630.22 303.259C1657.03 314.525 1635.88 351.454 1645.45 372.72C1656.63 398.076 1699.36 379.415 1715.97 387.563C1748.01 403.289 1716.24 473.422 1731.93 499.411C1742.17 516.375 1777.03 514.48 1790.43 504.14C1798.08 492.591 1797.48 405.381 1796.52 386.969C1790.25 266.92 1828.6 124.944 1710.38 46.9796C1661.91 14.8895 1602.75 3.2065 1545.73 14.4579C1478.22 28.2656 1433.98 65.1037 1397.11 121.462C1332.34 15.8919 1221.55 -23.4881 1105.55 36.0831C1069.67 54.5141 1043.82 87.4244 1022.55 121.16C1012.25 103.323 1001.16 86.5035 987.188 71.2906C950.911 31.8146 898.951 9.63313 845.533 7.6332C806.23 6.16082 748.889 16.7791 720.233 45.1379C680.589 84.3693 697.414 180.102 696.555 233.448C693.558 419.481 462.941 286.296 387.352 363.061Z" fill="url(#g)"/>
<path d="M850.924 1072.86C849.337 966.619 836.325 963.612 947.473 968.326C955.986 968.686 960.983 969.751 967.511 975.002C982.613 998.56 955.242 1030.68 990.296 1040.18C1024.88 1049.56 1102.83 1017.48 1088.52 1082.75C1089.99 1141.31 1123.4 1110.74 1156.43 1118.24C1190.68 1126 1162.14 1184.12 1177.08 1204.07C1189.06 1220.08 1230.76 1207.28 1248.67 1211.23C1301.19 1217.24 1257.06 1288.06 1281.55 1314.22C1306 1337.04 1360.51 1305.39 1381.91 1329.71C1390.45 1338.86 1390.71 1407.44 1376.59 1409.14C1326.54 1415.15 1226.89 1415.3 1180.09 1408.28C1151.42 1403.98 1178.83 1261 1162.45 1239.28C1148.25 1220.43 1125.97 1233.8 1105.31 1229C1087.39 1213.53 1105.23 1197.05 1093.32 1170.92C1079.98 1159.82 993.016 1165.85 968.954 1163.96C889.091 1155.84 977.414 1309.41 900.064 1304.68C875.485 1303.18 792.552 1317.49 803.31 1279.16C807.938 1262.67 828.915 1271.8 842.69 1264.36C856.008 1250.1 851.639 1203.39 851.442 1182.94C850.929 1146.25 850.757 1109.55 850.924 1072.86Z" fill="url(#g)"/>
<path d="M686.79 38.5242C686.277 41.9917 686.498 42.313 684.954 45.229C658.317 95.6878 663.995 166.99 665.295 223.108C667.467 317.014 624.016 306.693 545.994 308.28C498.231 309.254 445.014 301.993 398.886 321.82L398.953 319C429.825 283.274 475.948 243.86 510.408 210.183C568.905 153.015 627.09 94.249 686.79 38.5242Z" fill="url(#g)"/>
<path d="M1345.21 763.781C1359.87 764.055 1375.27 761.662 1383.56 776.194C1392.81 792.394 1390.12 808.96 1386.25 826.154C1381.43 847.529 1367.26 838.321 1351.37 847.39C1344.1 856.877 1344.98 865.073 1345.15 876.349C1342.87 923.724 1382.14 896.554 1397.23 913.067C1410.38 927.455 1408.02 1015.19 1393.09 1028.69C1375.26 1032.84 1327.92 1032.12 1309.29 1027.23C1296.87 1002.48 1310.08 975.866 1301.92 958.087C1285.21 925.004 1242 952.418 1219.38 939.023C1199.95 927.052 1199.75 865.567 1212.7 850.997C1230.87 834.35 1268.19 845.045 1290.89 842.805C1347.52 837.208 1278.35 767.666 1345.21 763.781Z" fill="url(#g)"/>
<path d="M1478.73 586.065C1498.58 585.447 1531.45 582.852 1549.05 588.713C1564.27 603.806 1557.64 780.03 1555.04 812.355C1553.51 831.415 1483.71 826.062 1468.01 825.765C1457.57 825.592 1452.63 826.014 1443.76 821.146C1431.68 807.502 1438.27 789.488 1434.07 768.232C1419.51 748.477 1412.18 758.352 1398.03 747.264C1391.09 734.55 1392.41 706.45 1395.24 694.527C1400.36 672.887 1436.79 687.088 1458.48 677.87C1478.36 655.099 1448.79 601.528 1478.73 586.065Z" fill="url(#g)"/>
<path d="M1604.37 835.218C1626.59 833.904 1762.78 830.293 1774 836.297C1782.22 840.7 1786.67 847.352 1788.72 856.248C1791.35 867.706 1791.05 889.888 1782.64 899.23C1770.86 912.314 1731.14 905.489 1714.48 904.583C1698.59 903.719 1674.31 900.401 1662.4 913.566C1654.34 922.477 1656.04 935.503 1656.22 946.61C1656.41 962.701 1658.72 991.803 1654.87 1005.51C1630.3 1016.63 1597.88 1017.27 1571.16 1015.42C1532.1 1012.72 1538.13 968.657 1542.59 941.493C1542.74 914.29 1574.81 931.896 1583.28 921.033C1605.21 892.924 1571.01 861.093 1604.37 835.218Z" fill="url(#g)"/>
<path d="M526.585 945.986C541.289 945.785 555.188 945.401 569.955 946.764C643.094 953.502 552.627 1051.35 636.552 1048.21C684.225 1046.43 709.126 1041.41 705.701 1100.2C704.205 1125.8 712.003 1157.57 686.273 1172.76C667.77 1172.74 611.915 1177.51 600.213 1169.8C577.691 1154.96 593.086 1098.89 586.094 1071.1C557.778 1032.32 499.238 1096.3 506.077 1000.52C507.693 977.832 498.437 954.293 526.585 945.986Z" fill="url(#g)"/>
<path d="M982.915 1257.33C1004.14 1257.07 1065.3 1252.62 1079.81 1263.9C1089.55 1284.96 1086.73 1350.15 1083.9 1374.77C1083.01 1382.62 1078.38 1386.11 1072.51 1389.71C956.317 1391.77 967.098 1402.07 970.139 1283.52C970.479 1270.08 972.954 1265.71 982.915 1257.33Z" fill="url(#g)"/>
<path d="M1108.69 940.62C1201.72 937.325 1201.13 926.203 1206.51 1016.34C1213.64 1021.76 1223.23 1027.83 1230.82 1032.94C1233.15 1052.02 1238.93 1075.85 1222.5 1089.01C1152.7 1099.13 1188.98 1077.73 1160.37 1042.75C1148.61 1028.37 1110.11 1041.82 1101.85 1029.58C1091.92 1014.86 1097 979.026 1096.57 961.132C1096.6 951.584 1101.91 946.38 1108.69 940.62Z" fill="url(#g)"/>
<path d="M1699.46 579.006C1715.36 578.521 1775.29 572.593 1786.03 586.344C1791.61 593.494 1794.54 622.309 1793.26 632.27C1790.24 655.708 1801.15 687.223 1778.09 701.4C1755.29 701.711 1733.36 702.162 1710.23 701.256C1680.46 702.335 1679.55 670.681 1680.72 647.699C1681.95 623.532 1675.77 593.226 1699.46 579.006Z" fill="url(#g)"/>
<path d="M1450.51 1039.7C1468.43 1039.36 1514.41 1036.35 1531.21 1044.11C1540.14 1048.24 1544.06 1071.51 1542.27 1081.28C1538.54 1101.71 1538.48 1108.46 1517.17 1110.59C1492.4 1110.35 1454 1114.36 1432.3 1105.22C1415.32 1098.07 1419.02 1057.47 1429.61 1046.33C1435.72 1039.9 1442.46 1040.48 1450.51 1039.7Z" fill="url(#g)"/>
<path d="M195.281 1638.91C224 1638.83 252.713 1638.96 281.432 1639.29C281.705 1664.7 283.034 1700.93 281.254 1725.37C253.989 1726.68 222.983 1725.47 195.425 1725.02C194.806 1696.32 194.758 1667.61 195.281 1638.91Z" fill="url(#g)"/>
<path fill-rule="evenodd" clip-rule="evenodd" d="M406.641 1045.51C438.578 1086.69 492.808 1018.5 503.671 1086.87C507.58 1111.48 503.83 1138.14 505.067 1163C504.755 1187.81 505.701 1214.07 504.426 1238.77C509.644 1338.09 428.241 1249.1 420.884 1320.28C417.431 1353.66 422.336 1377.31 458.498 1372.62C566.907 1373.88 436.963 1262.71 575.761 1276.85C609.813 1279.59 661.724 1271.23 693.526 1280.76C719.134 1288.44 687.862 1343.09 714.148 1361.11C741.844 1380.1 810.271 1344.11 813.932 1385.07C824.124 1499.3 814.871 1481.41 718.663 1483.03C671.878 1453.14 738.817 1377.25 666.216 1379.55L667.213 1374.66C667.87 1349.78 667.96 1324.9 667.485 1300.02C642.019 1299.47 613.985 1298.21 588.772 1299.73C588.384 1322.45 583.443 1355.77 592.627 1373.59C600.118 1378.17 603.869 1376.9 614.237 1375.95L614.799 1379.16C601.879 1394.21 603.782 1402.04 603.84 1421.81C601.691 1423.2 594.358 1428.26 592.463 1428.72C591.854 1424.64 591.743 1416.96 589.007 1415.87C570.207 1408.45 525.541 1412.7 504.913 1412.61L506.585 1497.17C514.273 1497.88 527.689 1497.82 533.272 1501.39C531.732 1528.81 532.081 1548.76 532.911 1576.01C578.123 1535.17 653.95 1541.43 710.073 1541.56L820.784 1541.85L821.346 1495.57L905.276 1495.86C905.276 1516.63 901.963 1558.65 912.447 1573.44C920.274 1577.15 916.568 1577.09 923.833 1575.03C928.653 1565.98 927.121 1551.87 927.097 1540.86C968.232 1539.81 1009.38 1539.43 1050.52 1539.72C1052.82 1731.7 1051.26 1925.77 1051.43 2117.94L876.997 2118.05L876.425 2078.35C852.886 2077.42 833.159 2077 809.525 2077.42L809.632 2118.28L732.306 2118.98L732.194 2074.78C710.89 2074.64 688.951 2074.22 667.705 2074.65L667.087 2120.24L599.025 2120.06C598.147 2095.59 597.856 2071.1 598.168 2046.61L533.445 2045.84L532.855 1985.96C511.211 1984.93 490.949 1983.71 469.233 1984.57C469.338 1996.14 469.681 2008.69 469.528 2020.18C389.407 2019.6 401.918 2023.42 401.41 1946.05L472.174 1943.73L472.582 1897.83C472.097 1891.4 472.009 1890.71 470.259 1884.53C457.593 1874.43 437.888 1878.87 420.964 1880.12L420.945 1918.03C399.105 1917.49 377.257 1917.27 355.412 1917.37L354.274 1856.4L405.194 1855.05C405.012 1838.72 405.554 1821.26 405.775 1804.84C389.138 1803.53 370.326 1803.96 353.454 1803.97L353.318 1723.74L393.391 1722.14C403.41 1666.4 401.102 1668.83 458.189 1669.54C457.7 1655.27 458.571 1636.64 458.854 1622.03C478.781 1614.31 485.804 1608.86 501.597 1595.75C482.696 1594.89 463.522 1594.43 444.588 1593.8C443.605 1579.03 442.857 1564.24 442.349 1549.44C427.664 1559.58 419.744 1566.8 408.44 1580.38L410.482 1655.43C381.02 1655.32 351.554 1655.42 322.088 1655.72C321.172 1626.31 320.301 1600.09 321.428 1570.67C335.494 1570.79 348.457 1570.08 362.484 1569.35C363.923 1511.92 361.72 1442.82 360.77 1384.84C342.92 1384.36 323.932 1384.63 305.977 1384.58L305.948 1307.27L362.025 1307.31C365.109 1289.52 361.368 1270.65 365.224 1253.95L432.354 1254.07L433.08 1213.35C433.325 1204.7 434.726 1198.36 430.008 1191.49C415.385 1182.37 385.834 1187.45 364.953 1187.62C361.232 1176.61 363.324 1090.78 363.578 1072.52C371.41 1060.36 391.582 1053.41 406.641 1045.51ZM710.888 1952.57C686.232 1952.27 661.567 1952.26 636.906 1952.53C636.992 1977.12 636.686 2002.8 637.295 2027.29L711.169 2026.61L710.888 1952.57ZM746.797 1894.54L746.886 1964.43L816.03 1964.3L816.297 1894.29L746.797 1894.54ZM559.664 1814.33C535.296 1812.69 499.066 1813.6 473.945 1813.6C474.386 1841.68 473.929 1869.77 472.582 1897.83C501.631 1898.02 530.685 1897.77 559.729 1897.07L559.664 1814.33ZM731.669 1749.63L685.639 1750.12C685.039 1778.2 684.838 1806.29 685.025 1834.38L725.824 1833.73L768.899 1832.45C769.465 1805.81 770.636 1776.49 770.248 1750.1C757.553 1749.9 744.316 1749.48 731.669 1749.63ZM542.798 1697.51C543.158 1723.44 542.771 1756.07 544.728 1781.35C571.811 1781.44 599.595 1781.86 626.621 1781.24C627.249 1753.55 627.49 1725.86 627.351 1698.16L542.798 1697.51ZM830.666 1630.95C806.965 1630.79 782.562 1630.31 758.923 1630.67C758.568 1653.91 757.84 1678.27 757.897 1701.42C782.083 1701.4 806.27 1701.1 830.446 1700.53L830.666 1630.95ZM579.822 1570.35C579.208 1598.6 579.307 1626.86 580.122 1655.11L663.546 1655.05C665.359 1626.92 664.181 1599.27 663.481 1571.11C635.996 1570.84 607.202 1570.12 579.822 1570.35ZM451.14 1415.31C426.94 1413.46 407.634 1413.15 383.275 1413.85L378.863 1416.72C376.326 1434.73 378.006 1465.36 378.61 1484.48C400.91 1484.43 424.482 1484.78 446.672 1484.13C455.822 1476.78 451.519 1429.48 451.14 1415.31Z" fill="url(#g)"/>
<path d="M722.046 1201.88C774.275 1197.95 805.679 1190.94 792.749 1259.47C790.821 1269.7 791.238 1269.2 782.764 1275.27C764.879 1276.35 725.432 1282.64 715.634 1267.33C703.366 1248.17 705.37 1217.72 722.046 1201.88Z" fill="url(#g)"/>
<path d="M894.539 1411.42C902.712 1411.4 928.994 1410.42 933.718 1415.38C948.466 1430.85 945.195 1464.2 933.469 1478.72C926.414 1483.67 921.071 1482.6 912.308 1482.6C898.175 1482.95 876.094 1485.52 865.188 1477.39C857.749 1459.72 854.867 1432.47 868.837 1416.72C873.571 1411.39 887.221 1411.77 894.539 1411.42Z" fill="url(#g)"/>
<path d="M1343.6 1127.98C1353.67 1127.21 1363.74 1126.57 1373.81 1126.05C1412.74 1124.31 1410.12 1145.04 1409.14 1176.53C1408.84 1186.03 1407.01 1188.5 1400.08 1194.56C1386.42 1195.57 1357.81 1198.5 1345.92 1192.25C1329.08 1183.39 1332.84 1140.86 1343.6 1127.98Z" fill="url(#g)"/>
<path d="M253.927 1480.09L322.131 1480.07C322.327 1503.21 322.222 1526.36 321.819 1549.5L252.915 1549.43C252.757 1525.54 252.665 1504.04 253.927 1480.09Z" fill="url(#g)"/>
<path d="M260.257 1793.97L326.936 1793.55L327.023 1861.13L260.54 1861.15L260.257 1793.97Z" fill="url(#g)"/>
<path d="M8.03056 1619.9L73.405 1620.08C74.6664 1642.07 74.7479 1664.49 75.0836 1686.54L7.61811 1686C7.37351 1663.97 7.50779 1641.93 8.03056 1619.9Z" fill="url(#g)"/>
<path d="M373.189 2020.61L404.478 2021.14L404.071 2086.69L368.163 2086.73L338.835 2086.48C337.881 2062.84 337.91 2044.83 338.821 2021.18L373.189 2020.61Z" fill="url(#g)"/>
<path d="M60.4317 1757.93L125.835 1757.76L126.123 1823.49C105.418 1824.32 81.4958 1823.47 60.5469 1823.22C60.168 1801.47 60.1295 1779.7 60.4317 1757.93Z" fill="url(#g)"/>
<path d="M144.995 1883L209.851 1882.57C210.576 1904.44 209.923 1927.45 209.655 1949.41L145.172 1948.06L144.995 1883Z" fill="url(#g)"/>
<path d="M148.928 1210.97L214.609 1210.99C215.089 1232.42 214.604 1254.59 214.422 1276.09L148.971 1275.97L148.928 1210.97Z" fill="url(#g)"/>
<path d="M128.78 1470.64C150.117 1470.37 171.459 1470.63 192.787 1471.43L192.941 1537.38L128.358 1537.4C128.358 1515.15 128.497 1492.89 128.78 1470.64Z" fill="url(#g)"/>
<path d="M146.774 2070.43L211.036 2069.99C211.683 2091.09 211.525 2113.3 211.712 2134.5L146.856 2134.15C146.539 2112.91 146.511 2091.67 146.774 2070.43Z" fill="url(#g)"/>
<path d="M1593.7 708.613C1633.36 706.618 1663.71 711.467 1645.1 762.731C1643 768.525 1638.67 769.172 1633.49 770.98C1614.87 772.836 1599.59 771.647 1581.21 769.417C1578.93 747.873 1571.2 719.207 1593.7 708.613Z" fill="url(#g)"/>
<path d="M1107.23 1446.54C1120.5 1445.75 1149.69 1442.29 1160.44 1448.01C1177.67 1457.17 1173.76 1491.16 1164.23 1505.42C1145.93 1507.51 1127.59 1511.3 1110.3 1502.2C1092.4 1492.78 1098.69 1460.63 1107.23 1446.54Z" fill="url(#g)"/>
<path d="M473.229 2051.03L533.688 2051.03C534.114 2071.27 533.745 2092.56 533.716 2112.89L472.975 2112.15C472.735 2091.97 473.104 2071.25 473.229 2051.03Z" fill="url(#g)"/>
<defs>
<linearGradient id="g" x1="1364.77" y1="475.111" x2="834.812" y2="1590.18" gradientUnits="userSpaceOnUse">
<stop stop-color="#191557"/>
<stop offset="1" stop-color="#1A5EC4"/>
</linearGradient>
</defs>
</svg>
