<svg width="374" height="444" viewBox="0 0 374 444" fill="none" xmlns="http://www.w3.org/2000/svg">
<path d="M279.951 320.517C296.417 320.506 308.665 320.021 324.912 322.14C330.737 323.634 335.14 325.194 339.257 327.352C343.385 329.515 347.265 332.299 352.028 336.282C356.534 340.435 359.166 343.365 362.411 348.211L363.071 349.207C378.278 372.51 373.926 407.178 351.962 424.811C346.758 428.635 343.075 431.017 339.169 432.883C335.254 434.754 331.079 436.124 324.862 437.891C321.297 438.823 314.075 439.17 306.531 439.271C299.015 439.37 291.381 439.227 287.022 439.227H287.023L229.528 439.169C229.899 399.999 229.407 359.817 229.281 320.614L279.952 320.518L279.951 320.517Z" fill="white" stroke="black" stroke-width="2" vector-effect="non-scaling-stroke"/>
<mask id="path-2-inside-1_2_17" fill="white">
<path d="M79.2016 74.1368C75.6836 77.7098 74.2046 82.1978 74.1276 87.1338L74.0426 87.4308C73.2726 92.3128 73.6416 109.925 73.6496 115.93L73.6876 173.603L74.2446 222.065C75.8776 219.529 80.0836 218.08 83.2236 216.432C82.7126 212.838 82.8356 209.087 82.6456 205.739C81.8406 191.612 89.7236 196.811 98.4666 196.163C108.401 195.426 100.42 180.433 105.378 175.18C108.019 172.383 114.097 175.318 117.478 174.658C127.825 173.34 119.906 164.706 124.253 159.209C127.537 157.474 159.244 157.449 161.578 160.286C162.298 162.911 162.573 169.981 161.133 171.976C157.222 177.397 137.261 172.959 130.756 174.324L130.668 174.342C128.083 174.883 127.566 174.991 125.918 176.907C124.513 178.541 124.805 187.746 125.36 189.03C127.969 195.061 136.945 189.896 142.795 192.64C145.522 195.451 144.704 200.094 144.717 204.314C144.663 206.873 144.113 215.506 146.839 216.849C168.136 227.343 163.77 203.682 163.251 192.476C163.438 189.947 162.466 179.105 165.361 178.423C174.774 176.204 187.432 177.095 197.199 177.782L197.787 177.823C203.129 179.998 199.835 188.296 201.378 191.544C203.689 196.406 218.632 195.147 222.899 194.209C227.222 193.259 226.622 181.369 225.228 178.73C221.229 171.16 207.367 180.614 203.466 172.452C202.282 169.805 202.275 160.735 203.245 157.971C203.704 157.441 204.768 156.264 205.595 156.267C211.598 156.364 222.654 154.607 228.006 157.021C232.953 159.252 227.147 172.288 232.17 174.718C234.803 175.992 242.92 176.023 245.564 175.045C250.454 173.237 246.668 165.073 248.87 161.6C252.103 156.611 263.28 161.246 268.43 158.962C274.067 156.462 269.409 146.15 271.599 141.774C273.683 137.61 281.675 140.279 285.017 139.339C292.102 137.346 286.2 124.844 289.472 119.891C291.447 116.903 297.13 118.878 299.917 118.04C306.362 116.103 301.782 104.611 304.168 99.9758C304.853 98.6458 305.879 98.6178 307.24 98.2438C310.044 98.1798 319.548 97.5218 321.641 99.2308C326.959 103.96 319.391 113.542 325.403 117.829C328.826 120 334.051 119.539 337.75 119.507C346.299 119.431 349.305 119.727 348.694 110.011C348.457 106.231 350.176 99.7308 345.89 97.7548C338.291 94.2518 343.844 85.1878 340.886 79.6038C338.823 75.7088 331.99 77.8518 328.534 76.6948C324.157 75.3438 324.143 68.5348 325.36 65.0718C327.207 59.8118 333.988 59.7298 338.349 61.6678C343.939 64.0168 339.528 71.7168 341.524 76.1508C343.855 81.4378 352.765 77.5468 356.227 79.2458C362.909 82.5248 356.285 97.1478 359.556 102.567C361.691 106.104 368.959 105.709 371.753 103.553C373.349 101.145 373.224 82.9608 373.024 79.1218C371.716 54.0908 379.711 24.4878 355.062 8.23177C344.957 1.54077 332.621 -0.895217 320.731 1.45078C306.655 4.32978 297.432 12.0108 289.743 23.7618C276.239 1.74977 253.137 -6.46123 228.951 5.95977C221.469 9.80277 216.081 16.6648 211.645 23.6988C209.498 19.9798 207.186 16.4728 204.272 13.3008C196.708 5.06977 185.874 0.444779 174.736 0.0277789C166.541 -0.279221 154.585 1.93477 148.61 7.84777C140.344 16.0278 143.852 35.9888 143.673 47.1118C143.048 85.9008 94.9626 58.1308 79.2016 74.1368Z"/>
<path d="M175.86 222.135C175.529 199.983 172.816 199.356 195.991 200.339C197.766 200.414 198.808 200.636 200.169 201.731C203.318 206.643 197.611 213.341 204.92 215.322C212.13 217.276 228.385 210.587 225.401 224.197C225.707 236.408 232.674 230.034 239.56 231.596C246.701 233.215 240.751 245.334 243.866 249.494C246.364 252.831 255.058 250.163 258.793 250.986C269.743 252.239 260.541 267.006 265.648 272.461C270.746 277.219 282.112 270.618 286.575 275.69C288.355 277.598 288.408 291.897 285.465 292.251C275.028 293.505 254.251 293.536 244.493 292.072C238.516 291.176 244.231 261.363 240.816 256.834C237.854 252.905 233.209 255.693 228.902 254.691C225.165 251.466 228.885 248.03 226.401 242.582C223.62 240.267 205.487 241.525 200.47 241.13C183.818 239.436 202.234 271.457 186.106 270.471C180.981 270.158 163.689 273.142 165.932 265.15C166.897 261.712 171.271 263.615 174.143 262.063C176.92 259.091 176.009 249.352 175.968 245.088C175.861 237.437 175.825 229.786 175.86 222.135Z"/>
<path d="M141.637 6.46875C141.53 7.19175 141.576 7.25876 141.254 7.86676C135.7 18.3878 136.884 33.2547 137.155 44.9557C137.608 64.5357 128.548 62.3838 112.28 62.7148C102.321 62.9178 91.2246 61.4038 81.6066 65.5378L81.6206 64.9498C88.0576 57.5008 97.6746 49.2828 104.86 42.2608C117.057 30.3408 129.189 18.0878 141.637 6.46875Z"/>
<path d="M278.921 157.69C281.978 157.747 285.189 157.248 286.919 160.278C288.847 163.656 288.286 167.11 287.479 170.695C286.475 175.152 283.519 173.232 280.206 175.123C278.691 177.101 278.874 178.81 278.91 181.161C278.435 191.039 286.623 185.374 289.769 188.817C292.51 191.817 292.019 210.11 288.905 212.925C285.188 213.79 275.317 213.64 271.433 212.62C268.843 207.461 271.598 201.911 269.896 198.204C266.411 191.306 257.402 197.022 252.686 194.229C248.634 191.733 248.592 178.913 251.293 175.875C255.081 172.404 262.863 174.634 267.595 174.167C279.403 173 264.982 158.5 278.921 157.69Z"/>
<path d="M306.761 120.635C310.9 120.506 317.755 119.965 321.423 121.187C324.598 124.334 323.214 161.078 322.672 167.818C322.353 171.792 307.801 170.676 304.526 170.614C302.349 170.578 301.319 170.666 299.471 169.651C296.952 166.806 298.326 163.05 297.45 158.618C294.413 154.499 292.886 156.558 289.936 154.246C288.489 151.595 288.764 145.736 289.353 143.25C290.421 138.738 298.018 141.699 302.54 139.777C306.685 135.029 300.519 123.859 306.761 120.635Z"/>
<path d="M332.959 172.585C337.592 172.311 365.989 171.558 368.327 172.81C370.042 173.728 370.969 175.115 371.396 176.97C371.945 179.359 371.882 183.984 370.128 185.932C367.673 188.66 359.39 187.237 355.917 187.048C352.604 186.868 347.541 186.176 345.059 188.921C343.378 190.779 343.732 193.495 343.769 195.811C343.809 199.166 344.291 205.234 343.489 208.092C338.366 210.41 331.606 210.545 326.035 210.159C317.889 209.596 319.146 200.408 320.077 194.744C320.108 189.072 326.796 192.743 328.562 190.478C333.134 184.617 326.002 177.98 332.959 172.585Z"/>
<path d="M108.233 195.681C111.299 195.639 114.197 195.559 117.276 195.843C132.526 197.248 113.663 217.651 131.162 216.996C141.102 216.625 146.294 215.578 145.58 227.835C145.268 233.173 146.894 239.797 141.529 242.965C137.671 242.961 126.025 243.955 123.585 242.348C118.889 239.253 122.099 227.563 120.641 221.769C114.737 213.682 102.531 227.023 103.957 207.052C104.294 202.321 102.364 197.413 108.233 195.681Z"/>
<path d="M203.381 260.599C207.806 260.544 220.559 259.617 223.584 261.969C225.615 266.36 225.028 279.952 224.438 285.086C224.251 286.721 223.285 287.45 222.062 288.2C197.835 288.629 200.083 290.778 200.717 266.059C200.788 263.257 201.304 262.346 203.381 260.599Z"/>
<path d="M229.605 194.562C249.003 193.875 248.881 191.556 250.003 210.35C251.488 211.48 253.489 212.745 255.07 213.811C255.556 217.789 256.761 222.759 253.336 225.502C238.783 227.613 246.347 223.151 240.381 215.857C237.929 212.859 229.903 215.663 228.18 213.111C226.109 210.041 227.168 202.57 227.079 198.839C227.086 196.848 228.192 195.763 229.605 194.562Z"/>
<path d="M352.786 119.163C356.101 119.062 368.596 117.826 370.835 120.693C372 122.184 372.611 128.192 372.343 130.269C371.714 135.156 373.988 141.727 369.18 144.683C364.426 144.748 359.853 144.842 355.032 144.653C348.824 144.878 348.634 138.278 348.878 133.486C349.134 128.447 347.846 122.128 352.786 119.163Z"/>
<path d="M300.877 215.22C304.615 215.151 314.201 214.523 317.704 216.141C319.567 217.001 320.384 221.854 320.011 223.891C319.232 228.151 319.221 229.557 314.776 230.002C309.611 229.952 301.605 230.789 297.08 228.882C293.54 227.391 294.312 218.926 296.52 216.603C297.794 215.262 299.2 215.383 300.877 215.22Z"/>
<path d="M39.1536 340.16C45.1416 340.143 51.1286 340.17 57.1166 340.24C57.1736 345.537 57.4506 353.092 57.0796 358.187C51.3946 358.46 44.9296 358.208 39.1836 358.115C39.0546 352.131 39.0446 346.144 39.1536 340.16Z"/>
<path fill-rule="evenodd" clip-rule="evenodd" d="M83.2236 216.432C89.8826 225.018 101.19 210.8 103.455 225.057C104.27 230.188 103.488 235.747 103.746 240.93C103.681 246.102 103.878 251.578 103.612 256.729C104.7 277.436 87.7274 258.882 86.1934 273.724C85.4734 280.683 86.4961 285.614 94.0361 284.637C116.64 284.899 89.546 261.72 118.486 264.668C125.586 265.24 136.41 263.496 143.041 265.483C148.381 267.085 141.86 278.479 147.341 282.237C153.116 286.196 167.383 278.693 168.146 287.233C170.271 311.05 168.342 307.319 148.282 307.657C138.527 301.426 152.485 285.601 137.347 286.081L137.555 285.062C137.692 279.875 137.71 274.686 137.611 269.499C132.301 269.384 126.456 269.122 121.199 269.439C121.118 274.175 120.088 281.123 122.003 284.84C123.565 285.795 124.347 285.53 126.509 285.331L126.626 286C123.932 289.138 124.329 290.772 124.341 294.893C123.893 295.183 122.364 296.238 121.969 296.335C121.842 295.484 121.819 293.881 121.248 293.655C117.328 292.107 108.015 292.994 103.714 292.976L104.062 310.606C105.666 310.753 108.463 310.742 109.627 311.485C109.306 317.203 109.379 321.363 109.552 327.046C118.979 318.53 134.789 319.834 146.491 319.861L169.575 319.922L169.692 310.272L187.192 310.333C187.192 314.663 186.502 323.426 188.688 326.51C190.319 327.282 189.547 327.271 191.062 326.84C192.067 324.954 191.747 322.012 191.742 319.715C200.319 319.498 208.899 319.419 217.478 319.478C217.956 359.508 217.63 399.973 217.667 440.041L181.296 440.064L181.177 431.787C176.269 431.593 172.156 431.504 167.228 431.593L167.25 440.111L151.127 440.259L151.104 431.041C146.662 431.013 142.087 430.925 137.657 431.015L137.528 440.521L123.337 440.483C123.154 435.381 123.093 430.275 123.158 425.169L109.663 425.007L109.54 412.521C105.027 412.307 100.802 412.053 96.2744 412.232C96.2964 414.644 96.3679 417.262 96.3359 419.658C79.6301 419.537 82.2388 420.333 82.1328 404.2L96.8877 403.717L96.9727 394.146C96.8717 392.807 96.8532 392.662 96.4883 391.373C93.8474 389.267 89.7389 390.194 86.21 390.453L86.2061 398.357C81.6522 398.245 77.0969 398.2 72.542 398.221L72.3047 385.509L82.9219 385.226C82.8839 381.821 82.997 378.182 83.043 374.757C79.574 374.484 75.6517 374.574 72.1338 374.575L72.1055 357.847L80.4609 357.515C82.5499 345.891 82.0687 346.398 93.9717 346.547C93.8697 343.571 94.0514 339.687 94.1104 336.641C98.2652 335.032 99.7297 333.895 103.022 331.16C99.0816 330.982 95.0836 330.885 91.1357 330.754C90.9307 327.674 90.7749 324.59 90.6689 321.505C87.6069 323.619 85.9556 325.124 83.5986 327.957L84.0244 343.604C77.8815 343.582 71.7376 343.602 65.5938 343.664C65.4028 337.532 65.2211 332.066 65.4561 325.932C68.3889 325.957 71.0918 325.809 74.0166 325.656C74.3166 313.682 73.8572 299.275 73.6592 287.185C69.9373 287.085 65.9782 287.142 62.2344 287.13L62.2285 271.011L73.9209 271.02C74.5638 267.311 73.7839 263.375 74.5879 259.893L88.585 259.918L88.7363 251.429C88.7873 249.625 89.0795 248.302 88.0957 246.87C85.0467 244.968 78.8853 246.028 74.5312 246.063C73.7554 243.768 74.1916 225.872 74.2446 222.065C75.8776 219.529 80.0836 218.08 83.2236 216.432ZM146.661 405.56C141.52 405.498 136.377 405.495 131.235 405.552C131.253 410.68 131.189 416.033 131.316 421.14L146.72 420.998L146.661 405.56ZM154.148 393.46L154.167 408.032L168.584 408.006L168.64 393.409L154.148 393.46ZM115.13 376.736C110.049 376.393 102.495 376.585 97.2568 376.583C97.3488 382.439 97.2536 388.296 96.9727 394.146C103.03 394.187 109.088 394.133 115.144 393.987L115.13 376.736ZM150.994 363.246L141.396 363.349C141.271 369.203 141.23 375.06 141.269 380.916L149.775 380.78L158.757 380.515C158.875 374.961 159.119 368.846 159.038 363.345C156.391 363.303 153.631 363.214 150.994 363.246ZM111.613 352.379C111.688 357.786 111.608 364.589 112.016 369.86C117.663 369.878 123.456 369.967 129.091 369.837C129.222 364.064 129.272 358.289 129.243 352.515L111.613 352.379ZM171.636 338.5C166.694 338.466 161.606 338.366 156.677 338.442C156.603 343.288 156.451 348.367 156.463 353.194C161.506 353.189 166.549 353.128 171.59 353.008L171.636 338.5ZM119.333 325.865C119.205 331.755 119.226 337.648 119.396 343.537L136.79 343.525C137.168 337.661 136.922 331.894 136.776 326.023C131.046 325.967 125.042 325.817 119.333 325.865ZM92.502 293.537C87.456 293.153 83.4306 293.087 78.3516 293.232L77.4316 293.831C76.9027 297.586 77.2529 303.974 77.3789 307.961C82.0287 307.95 86.9435 308.024 91.5703 307.888C93.4782 306.356 92.581 296.493 92.502 293.537Z"/>
<path d="M148.988 249.036C159.878 248.218 166.426 246.756 163.73 261.044C163.328 263.177 163.415 263.074 161.648 264.339C157.919 264.565 149.694 265.875 147.651 262.683C145.093 258.689 145.511 252.34 148.988 249.036Z"/>
<path d="M184.954 292.726C186.658 292.723 192.138 292.519 193.123 293.553C196.198 296.779 195.516 303.731 193.071 306.76C191.6 307.792 190.486 307.568 188.659 307.568C185.712 307.642 181.108 308.177 178.834 306.483C177.283 302.797 176.682 297.116 179.595 293.832C180.582 292.72 183.428 292.799 184.954 292.726Z"/>
<path d="M278.586 233.627C280.685 233.467 282.785 233.333 284.886 233.225C293.003 232.863 292.456 237.184 292.252 243.751C292.19 245.731 291.807 246.246 290.363 247.51C287.515 247.721 281.549 248.332 279.069 247.028C275.558 245.181 276.342 236.313 278.586 233.627Z"/>
<path d="M51.3816 307.045L65.6026 307.041C65.6436 311.866 65.6216 316.692 65.5376 321.517L51.1706 321.504C51.1376 316.522 51.1186 312.038 51.3816 307.045Z"/>
<path d="M52.7016 372.491L66.6046 372.403L66.6226 386.495L52.7606 386.498L52.7016 372.491Z"/>
<path d="M0.110625 336.197L13.7416 336.235C14.0046 340.819 14.0216 345.494 14.0916 350.091L0.0246265 349.979C-0.0263735 345.385 0.00162508 340.79 0.110625 336.197Z"/>
<path d="M76.2486 419.747L82.7726 419.858L82.6876 433.526L75.2006 433.534L69.0856 433.481C68.8866 428.553 68.8926 424.797 69.0826 419.867L76.2486 419.747Z"/>
<path d="M11.0366 364.977L24.6736 364.941L24.7336 378.646C20.4166 378.819 15.4286 378.643 11.0606 378.591C10.9816 374.054 10.9736 369.515 11.0366 364.977Z"/>
<path d="M28.6686 391.055L42.1916 390.965C42.3426 395.524 42.2066 400.322 42.1506 404.901L28.7056 404.619L28.6686 391.055Z"/>
<path d="M29.4886 250.931L43.1836 250.935C43.2836 255.404 43.1826 260.027 43.1446 264.509L29.4976 264.484L29.4886 250.931Z"/>
<path d="M25.2876 305.075C29.7366 305.018 34.1866 305.073 38.6336 305.24L38.6656 318.99L25.1996 318.995C25.1996 314.355 25.2286 309.715 25.2876 305.075Z"/>
<path d="M29.0396 430.135L42.4386 430.043C42.5736 434.443 42.5406 439.073 42.5796 443.494L29.0566 443.422C28.9906 438.993 28.9846 434.564 29.0396 430.135Z"/>
<path d="M330.734 146.187C339.003 145.771 345.332 146.782 341.452 157.471C341.013 158.679 340.111 158.814 339.031 159.191C335.147 159.578 331.961 159.33 328.129 158.865C327.655 154.373 326.042 148.396 330.734 146.187Z"/>
<path d="M229.302 300.05C232.068 299.885 238.154 299.163 240.396 300.356C243.988 302.266 243.173 309.353 241.187 312.327C237.371 312.763 233.546 313.553 229.941 311.656C226.21 309.692 227.52 302.988 229.302 300.05Z"/>
<path d="M97.1076 426.089L109.714 426.091C109.803 430.311 109.726 434.749 109.72 438.988L97.0546 438.834C97.0046 434.626 97.0816 430.306 97.1076 426.089Z"/>
</mask>
<path d="M79.2016 74.1368C75.6836 77.7098 74.2046 82.1978 74.1276 87.1338L74.0426 87.4308C73.2726 92.3128 73.6416 109.925 73.6496 115.93L73.6876 173.603L74.2446 222.065C75.8776 219.529 80.0836 218.08 83.2236 216.432C82.7126 212.838 82.8356 209.087 82.6456 205.739C81.8406 191.612 89.7236 196.811 98.4666 196.163C108.401 195.426 100.42 180.433 105.378 175.18C108.019 172.383 114.097 175.318 117.478 174.658C127.825 173.34 119.906 164.706 124.253 159.209C127.537 157.474 159.244 157.449 161.578 160.286C162.298 162.911 162.573 169.981 161.133 171.976C157.222 177.397 137.261 172.959 130.756 174.324L130.668 174.342C128.083 174.883 127.566 174.991 125.918 176.907C124.513 178.541 124.805 187.746 125.36 189.03C127.969 195.061 136.945 189.896 142.795 192.64C145.522 195.451 144.704 200.094 144.717 204.314C144.663 206.873 144.113 215.506 146.839 216.849C168.136 227.343 163.77 203.682 163.251 192.476C163.438 189.947 162.466 179.105 165.361 178.423C174.774 176.204 187.432 177.095 197.199 177.782L197.787 177.823C203.129 179.998 199.835 188.296 201.378 191.544C203.689 196.406 218.632 195.147 222.899 194.209C227.222 193.259 226.622 181.369 225.228 178.73C221.229 171.16 207.367 180.614 203.466 172.452C202.282 169.805 202.275 160.735 203.245 157.971C203.704 157.441 204.768 156.264 205.595 156.267C211.598 156.364 222.654 154.607 228.006 157.021C232.953 159.252 227.147 172.288 232.17 174.718C234.803 175.992 242.92 176.023 245.564 175.045C250.454 173.237 246.668 165.073 248.87 161.6C252.103 156.611 263.28 161.246 268.43 158.962C274.067 156.462 269.409 146.15 271.599 141.774C273.683 137.61 281.675 140.279 285.017 139.339C292.102 137.346 286.2 124.844 289.472 119.891C291.447 116.903 297.13 118.878 299.917 118.04C306.362 116.103 301.782 104.611 304.168 99.9758C304.853 98.6458 305.879 98.6178 307.24 98.2438C310.044 98.1798 319.548 97.5218 321.641 99.2308C326.959 103.96 319.391 113.542 325.403 117.829C328.826 120 334.051 119.539 337.75 119.507C346.299 119.431 349.305 119.727 348.694 110.011C348.457 106.231 350.176 99.7308 345.89 97.7548C338.291 94.2518 343.844 85.1878 340.886 79.6038C338.823 75.7088 331.99 77.8518 328.534 76.6948C324.157 75.3438 324.143 68.5348 325.36 65.0718C327.207 59.8118 333.988 59.7298 338.349 61.6678C343.939 64.0168 339.528 71.7168 341.524 76.1508C343.855 81.4378 352.765 77.5468 356.227 79.2458C362.909 82.5248 356.285 97.1478 359.556 102.567C361.691 106.104 368.959 105.709 371.753 103.553C373.349 101.145 373.224 82.9608 373.024 79.1218C371.716 54.0908 379.711 24.4878 355.062 8.23177C344.957 1.54077 332.621 -0.895217 320.731 1.45078C306.655 4.32978 297.432 12.0108 289.743 23.7618C276.239 1.74977 253.137 -6.46123 228.951 5.95977C221.469 9.80277 216.081 16.6648 211.645 23.6988C209.498 19.9798 207.186 16.4728 204.272 13.3008C196.708 5.06977 185.874 0.444779 174.736 0.0277789C166.541 -0.279221 154.585 1.93477 148.61 7.84777C140.344 16.0278 143.852 35.9888 143.673 47.1118C143.048 85.9008 94.9626 58.1308 79.2016 74.1368Z" fill="url(#paint0_linear_2_17)"/>
<path d="M175.86 222.135C175.529 199.983 172.816 199.356 195.991 200.339C197.766 200.414 198.808 200.636 200.169 201.731C203.318 206.643 197.611 213.341 204.92 215.322C212.13 217.276 228.385 210.587 225.401 224.197C225.707 236.408 232.674 230.034 239.56 231.596C246.701 233.215 240.751 245.334 243.866 249.494C246.364 252.831 255.058 250.163 258.793 250.986C269.743 252.239 260.541 267.006 265.648 272.461C270.746 277.219 282.112 270.618 286.575 275.69C288.355 277.598 288.408 291.897 285.465 292.251C275.028 293.505 254.251 293.536 244.493 292.072C238.516 291.176 244.231 261.363 240.816 256.834C237.854 252.905 233.209 255.693 228.902 254.691C225.165 251.466 228.885 248.03 226.401 242.582C223.62 240.267 205.487 241.525 200.47 241.13C183.818 239.436 202.234 271.457 186.106 270.471C180.981 270.158 163.689 273.142 165.932 265.15C166.897 261.712 171.271 263.615 174.143 262.063C176.92 259.091 176.009 249.352 175.968 245.088C175.861 237.437 175.825 229.786 175.86 222.135Z" fill="url(#paint1_linear_2_17)"/>
<path d="M141.637 6.46875C141.53 7.19175 141.576 7.25876 141.254 7.86676C135.7 18.3878 136.884 33.2547 137.155 44.9557C137.608 64.5357 128.548 62.3838 112.28 62.7148C102.321 62.9178 91.2246 61.4038 81.6066 65.5378L81.6206 64.9498C88.0576 57.5008 97.6746 49.2828 104.86 42.2608C117.057 30.3408 129.189 18.0878 141.637 6.46875Z" fill="url(#paint2_linear_2_17)"/>
<path d="M278.921 157.69C281.978 157.747 285.189 157.248 286.919 160.278C288.847 163.656 288.286 167.11 287.479 170.695C286.475 175.152 283.519 173.232 280.206 175.123C278.691 177.101 278.874 178.81 278.91 181.161C278.435 191.039 286.623 185.374 289.769 188.817C292.51 191.817 292.019 210.11 288.905 212.925C285.188 213.79 275.317 213.64 271.433 212.62C268.843 207.461 271.598 201.911 269.896 198.204C266.411 191.306 257.402 197.022 252.686 194.229C248.634 191.733 248.592 178.913 251.293 175.875C255.081 172.404 262.863 174.634 267.595 174.167C279.403 173 264.982 158.5 278.921 157.69Z" fill="url(#paint3_linear_2_17)"/>
<path d="M306.761 120.635C310.9 120.506 317.755 119.965 321.423 121.187C324.598 124.334 323.214 161.078 322.672 167.818C322.353 171.792 307.801 170.676 304.526 170.614C302.349 170.578 301.319 170.666 299.471 169.651C296.952 166.806 298.326 163.05 297.45 158.618C294.413 154.499 292.886 156.558 289.936 154.246C288.489 151.595 288.764 145.736 289.353 143.25C290.421 138.738 298.018 141.699 302.54 139.777C306.685 135.029 300.519 123.859 306.761 120.635Z" fill="url(#paint4_linear_2_17)"/>
<path d="M332.959 172.585C337.592 172.311 365.989 171.558 368.327 172.81C370.042 173.728 370.969 175.115 371.396 176.97C371.945 179.359 371.882 183.984 370.128 185.932C367.673 188.66 359.39 187.237 355.917 187.048C352.604 186.868 347.541 186.176 345.059 188.921C343.378 190.779 343.732 193.495 343.769 195.811C343.809 199.166 344.291 205.234 343.489 208.092C338.366 210.41 331.606 210.545 326.035 210.159C317.889 209.596 319.146 200.408 320.077 194.744C320.108 189.072 326.796 192.743 328.562 190.478C333.134 184.617 326.002 177.98 332.959 172.585Z" fill="url(#paint5_linear_2_17)"/>
<path d="M108.233 195.681C111.299 195.639 114.197 195.559 117.276 195.843C132.526 197.248 113.663 217.651 131.162 216.996C141.102 216.625 146.294 215.578 145.58 227.835C145.268 233.173 146.894 239.797 141.529 242.965C137.671 242.961 126.025 243.955 123.585 242.348C118.889 239.253 122.099 227.563 120.641 221.769C114.737 213.682 102.531 227.023 103.957 207.052C104.294 202.321 102.364 197.413 108.233 195.681Z" fill="url(#paint6_linear_2_17)"/>
<path d="M203.381 260.599C207.806 260.544 220.559 259.617 223.584 261.969C225.615 266.36 225.028 279.952 224.438 285.086C224.251 286.721 223.285 287.45 222.062 288.2C197.835 288.629 200.083 290.778 200.717 266.059C200.788 263.257 201.304 262.346 203.381 260.599Z" fill="url(#paint7_linear_2_17)"/>
<path d="M229.605 194.562C249.003 193.875 248.881 191.556 250.003 210.35C251.488 211.48 253.489 212.745 255.07 213.811C255.556 217.789 256.761 222.759 253.336 225.502C238.783 227.613 246.347 223.151 240.381 215.857C237.929 212.859 229.903 215.663 228.18 213.111C226.109 210.041 227.168 202.57 227.079 198.839C227.086 196.848 228.192 195.763 229.605 194.562Z" fill="url(#paint8_linear_2_17)"/>
<path d="M352.786 119.163C356.101 119.062 368.596 117.826 370.835 120.693C372 122.184 372.611 128.192 372.343 130.269C371.714 135.156 373.988 141.727 369.18 144.683C364.426 144.748 359.853 144.842 355.032 144.653C348.824 144.878 348.634 138.278 348.878 133.486C349.134 128.447 347.846 122.128 352.786 119.163Z" fill="url(#paint9_linear_2_17)"/>
<path d="M300.877 215.22C304.615 215.151 314.201 214.523 317.704 216.141C319.567 217.001 320.384 221.854 320.011 223.891C319.232 228.151 319.221 229.557 314.776 230.002C309.611 229.952 301.605 230.789 297.08 228.882C293.54 227.391 294.312 218.926 296.52 216.603C297.794 215.262 299.2 215.383 300.877 215.22Z" fill="url(#paint10_linear_2_17)"/>
<path d="M39.1536 340.16C45.1416 340.143 51.1286 340.17 57.1166 340.24C57.1736 345.537 57.4506 353.092 57.0796 358.187C51.3946 358.46 44.9296 358.208 39.1836 358.115C39.0546 352.131 39.0446 346.144 39.1536 340.16Z" fill="url(#paint11_linear_2_17)"/>
<path fill-rule="evenodd" clip-rule="evenodd" d="M83.2236 216.432C89.8826 225.018 101.19 210.8 103.455 225.057C104.27 230.188 103.488 235.747 103.746 240.93C103.681 246.102 103.878 251.578 103.612 256.729C104.7 277.436 87.7274 258.882 86.1934 273.724C85.4734 280.683 86.4961 285.614 94.0361 284.637C116.64 284.899 89.546 261.72 118.486 264.668C125.586 265.24 136.41 263.496 143.041 265.483C148.381 267.085 141.86 278.479 147.341 282.237C153.116 286.196 167.383 278.693 168.146 287.233C170.271 311.05 168.342 307.319 148.282 307.657C138.527 301.426 152.485 285.601 137.347 286.081L137.555 285.062C137.692 279.875 137.71 274.686 137.611 269.499C132.301 269.384 126.456 269.122 121.199 269.439C121.118 274.175 120.088 281.123 122.003 284.84C123.565 285.795 124.347 285.53 126.509 285.331L126.626 286C123.932 289.138 124.329 290.772 124.341 294.893C123.893 295.183 122.364 296.238 121.969 296.335C121.842 295.484 121.819 293.881 121.248 293.655C117.328 292.107 108.015 292.994 103.714 292.976L104.062 310.606C105.666 310.753 108.463 310.742 109.627 311.485C109.306 317.203 109.379 321.363 109.552 327.046C118.979 318.53 134.789 319.834 146.491 319.861L169.575 319.922L169.692 310.272L187.192 310.333C187.192 314.663 186.502 323.426 188.688 326.51C190.319 327.282 189.547 327.271 191.062 326.84C192.067 324.954 191.747 322.012 191.742 319.715C200.319 319.498 208.899 319.419 217.478 319.478C217.956 359.508 217.63 399.973 217.667 440.041L181.296 440.064L181.177 431.787C176.269 431.593 172.156 431.504 167.228 431.593L167.25 440.111L151.127 440.259L151.104 431.041C146.662 431.013 142.087 430.925 137.657 431.015L137.528 440.521L123.337 440.483C123.154 435.381 123.093 430.275 123.158 425.169L109.663 425.007L109.54 412.521C105.027 412.307 100.802 412.053 96.2744 412.232C96.2964 414.644 96.3679 417.262 96.3359 419.658C79.6301 419.537 82.2388 420.333 82.1328 404.2L96.8877 403.717L96.9727 394.146C96.8717 392.807 96.8532 392.662 96.4883 391.373C93.8474 389.267 89.7389 390.194 86.21 390.453L86.2061 398.357C81.6522 398.245 77.0969 398.2 72.542 398.221L72.3047 385.509L82.9219 385.226C82.8839 381.821 82.997 378.182 83.043 374.757C79.574 374.484 75.6517 374.574 72.1338 374.575L72.1055 357.847L80.4609 357.515C82.5499 345.891 82.0687 346.398 93.9717 346.547C93.8697 343.571 94.0514 339.687 94.1104 336.641C98.2652 335.032 99.7297 333.895 103.022 331.16C99.0816 330.982 95.0836 330.885 91.1357 330.754C90.9307 327.674 90.7749 324.59 90.6689 321.505C87.6069 323.619 85.9556 325.124 83.5986 327.957L84.0244 343.604C77.8815 343.582 71.7376 343.602 65.5938 343.664C65.4028 337.532 65.2211 332.066 65.4561 325.932C68.3889 325.957 71.0918 325.809 74.0166 325.656C74.3166 313.682 73.8572 299.275 73.6592 287.185C69.9373 287.085 65.9782 287.142 62.2344 287.13L62.2285 271.011L73.9209 271.02C74.5638 267.311 73.7839 263.375 74.5879 259.893L88.585 259.918L88.7363 251.429C88.7873 249.625 89.0795 248.302 88.0957 246.87C85.0467 244.968 78.8853 246.028 74.5312 246.063C73.7554 243.768 74.1916 225.872 74.2446 222.065C75.8776 219.529 80.0836 218.08 83.2236 216.432ZM146.661 405.56C141.52 405.498 136.377 405.495 131.235 405.552C131.253 410.68 131.189 416.033 131.316 421.14L146.72 420.998L146.661 405.56ZM154.148 393.46L154.167 408.032L168.584 408.006L168.64 393.409L154.148 393.46ZM115.13 376.736C110.049 376.393 102.495 376.585 97.2568 376.583C97.3488 382.439 97.2536 388.296 96.9727 394.146C103.03 394.187 109.088 394.133 115.144 393.987L115.13 376.736ZM150.994 363.246L141.396 363.349C141.271 369.203 141.23 375.06 141.269 380.916L149.775 380.78L158.757 380.515C158.875 374.961 159.119 368.846 159.038 363.345C156.391 363.303 153.631 363.214 150.994 363.246ZM111.613 352.379C111.688 357.786 111.608 364.589 112.016 369.86C117.663 369.878 123.456 369.967 129.091 369.837C129.222 364.064 129.272 358.289 129.243 352.515L111.613 352.379ZM171.636 338.5C166.694 338.466 161.606 338.366 156.677 338.442C156.603 343.288 156.451 348.367 156.463 353.194C161.506 353.189 166.549 353.128 171.59 353.008L171.636 338.5ZM119.333 325.865C119.205 331.755 119.226 337.648 119.396 343.537L136.79 343.525C137.168 337.661 136.922 331.894 136.776 326.023C131.046 325.967 125.042 325.817 119.333 325.865ZM92.502 293.537C87.456 293.153 83.4306 293.087 78.3516 293.232L77.4316 293.831C76.9027 297.586 77.2529 303.974 77.3789 307.961C82.0287 307.95 86.9435 308.024 91.5703 307.888C93.4782 306.356 92.581 296.493 92.502 293.537Z" fill="url(#paint12_linear_2_17)"/>
<path d="M148.988 249.036C159.878 248.218 166.426 246.756 163.73 261.044C163.328 263.177 163.415 263.074 161.648 264.339C157.919 264.565 149.694 265.875 147.651 262.683C145.093 258.689 145.511 252.34 148.988 249.036Z" fill="url(#paint13_linear_2_17)"/>
<path d="M184.954 292.726C186.658 292.723 192.138 292.519 193.123 293.553C196.198 296.779 195.516 303.731 193.071 306.76C191.6 307.792 190.486 307.568 188.659 307.568C185.712 307.642 181.108 308.177 178.834 306.483C177.283 302.797 176.682 297.116 179.595 293.832C180.582 292.72 183.428 292.799 184.954 292.726Z" fill="url(#paint14_linear_2_17)"/>
<path d="M278.586 233.627C280.685 233.467 282.785 233.333 284.886 233.225C293.003 232.863 292.456 237.184 292.252 243.751C292.19 245.731 291.807 246.246 290.363 247.51C287.515 247.721 281.549 248.332 279.069 247.028C275.558 245.181 276.342 236.313 278.586 233.627Z" fill="url(#paint15_linear_2_17)"/>
<path d="M51.3816 307.045L65.6026 307.041C65.6436 311.866 65.6216 316.692 65.5376 321.517L51.1706 321.504C51.1376 316.522 51.1186 312.038 51.3816 307.045Z" fill="url(#paint16_linear_2_17)"/>
<path d="M52.7016 372.491L66.6046 372.403L66.6226 386.495L52.7606 386.498L52.7016 372.491Z" fill="url(#paint17_linear_2_17)"/>
<path d="M0.110625 336.197L13.7416 336.235C14.0046 340.819 14.0216 345.494 14.0916 350.091L0.0246265 349.979C-0.0263735 345.385 0.00162508 340.79 0.110625 336.197Z" fill="url(#paint18_linear_2_17)"/>
<path d="M76.2486 419.747L82.7726 419.858L82.6876 433.526L75.2006 433.534L69.0856 433.481C68.8866 428.553 68.8926 424.797 69.0826 419.867L76.2486 419.747Z" fill="url(#paint19_linear_2_17)"/>
<path d="M11.0366 364.977L24.6736 364.941L24.7336 378.646C20.4166 378.819 15.4286 378.643 11.0606 378.591C10.9816 374.054 10.9736 369.515 11.0366 364.977Z" fill="url(#paint20_linear_2_17)"/>
<path d="M28.6686 391.055L42.1916 390.965C42.3426 395.524 42.2066 400.322 42.1506 404.901L28.7056 404.619L28.6686 391.055Z" fill="url(#paint21_linear_2_17)"/>
<path d="M29.4886 250.931L43.1836 250.935C43.2836 255.404 43.1826 260.027 43.1446 264.509L29.4976 264.484L29.4886 250.931Z" fill="url(#paint22_linear_2_17)"/>
<path d="M25.2876 305.075C29.7366 305.018 34.1866 305.073 38.6336 305.24L38.6656 318.99L25.1996 318.995C25.1996 314.355 25.2286 309.715 25.2876 305.075Z" fill="url(#paint23_linear_2_17)"/>
<path d="M29.0396 430.135L42.4386 430.043C42.5736 434.443 42.5406 439.073 42.5796 443.494L29.0566 443.422C28.9906 438.993 28.9846 434.564 29.0396 430.135Z" fill="url(#paint24_linear_2_17)"/>
<path d="M330.734 146.187C339.003 145.771 345.332 146.782 341.452 157.471C341.013 158.679 340.111 158.814 339.031 159.191C335.147 159.578 331.961 159.33 328.129 158.865C327.655 154.373 326.042 148.396 330.734 146.187Z" fill="url(#paint25_linear_2_17)"/>
<path d="M229.302 300.05C232.068 299.885 238.154 299.163 240.396 300.356C243.988 302.266 243.173 309.353 241.187 312.327C237.371 312.763 233.546 313.553 229.941 311.656C226.21 309.692 227.52 302.988 229.302 300.05Z" fill="url(#paint26_linear_2_17)"/>
<path d="M97.1076 426.089L109.714 426.091C109.803 430.311 109.726 434.749 109.72 438.988L97.0546 438.834C97.0046 434.626 97.0816 430.306 97.1076 426.089Z" fill="url(#paint27_linear_2_17)"/>
<path d="M83.2236 216.432L82.7589 215.546C81.9965 215.946 81.1664 216.336 80.2982 216.746C79.4386 217.153 78.5455 217.578 77.6958 218.034C76.0258 218.931 74.3673 220.027 73.4038 221.523L74.2446 222.065L75.0854 222.606C75.755 221.566 77.0159 220.67 78.6422 219.796C79.4406 219.367 80.2898 218.963 81.153 218.555C82.0076 218.151 82.8807 217.741 83.6883 217.317L83.2236 216.432Z" fill="black" mask="url(#path-2-inside-1_2_17)"/>
<defs>
<linearGradient id="paint0_linear_2_17" x1="283" y1="97.5" x2="172.5" y2="330" gradientUnits="userSpaceOnUse">
<stop stop-color="#191557"/>
<stop offset="1" stop-color="white"/>
</linearGradient>
<linearGradient id="paint1_linear_2_17" x1="283" y1="97.5" x2="172.5" y2="330" gradientUnits="userSpaceOnUse">
<stop stop-color="#191557"/>
<stop offset="1" stop-color="white"/>
</linearGradient>
<linearGradient id="paint2_linear_2_17" x1="283" y1="97.5" x2="172.5" y2="330" gradientUnits="userSpaceOnUse">
<stop stop-color="#191557"/>
<stop offset="1" stop-color="white"/>
</linearGradient>
<linearGradient id="paint3_linear_2_17" x1="283" y1="97.5" x2="172.5" y2="330" gradientUnits="userSpaceOnUse">
<stop stop-color="#191557"/>
<stop offset="1" stop-color="white"/>
</linearGradient>
<linearGradient id="paint4_linear_2_17" x1="283" y1="97.5" x2="172.5" y2="330" gradientUnits="userSpaceOnUse">
<stop stop-color="#191557"/>
<stop offset="1" stop-color="white"/>
</linearGradient>
<linearGradient id="paint5_linear_2_17" x1="283" y1="97.5" x2="172.5" y2="330" gradientUnits="userSpaceOnUse">
<stop stop-color="#191557"/>
<stop offset="1" stop-color="white"/>
</linearGradient>
<linearGradient id="paint6_linear_2_17" x1="283" y1="97.5" x2="172.5" y2="330" gradientUnits="userSpaceOnUse">
<stop stop-color="#191557"/>
<stop offset="1" stop-color="white"/>
</linearGradient>
<linearGradient id="paint7_linear_2_17" x1="283" y1="97.5" x2="172.5" y2="330" gradientUnits="userSpaceOnUse">
<stop stop-color="#191557"/>
<stop offset="1" stop-color="white"/>
</linearGradient>
<linearGradient id="paint8_linear_2_17" x1="283" y1="97.5" x2="172.5" y2="330" gradientUnits="userSpaceOnUse">
<stop stop-color="#191557"/>
<stop offset="1" stop-color="white"/>
</linearGradient>
<linearGradient id="paint9_linear_2_17" x1="283" y1="97.5" x2="172.5" y2="330" gradientUnits="userSpaceOnUse">
<stop stop-color="#191557"/>
<stop offset="1" stop-color="white"/>
</linearGradient>
<linearGradient id="paint10_linear_2_17" x1="283" y1="97.5" x2="172.5" y2="330" gradientUnits="userSpaceOnUse">
<stop stop-color="#191557"/>
<stop offset="1" stop-color="white"/>
</linearGradient>
<linearGradient id="paint11_linear_2_17" x1="283" y1="97.5" x2="172.5" y2="330" gradientUnits="userSpaceOnUse">
<stop stop-color="#191557"/>
<stop offset="1" stop-color="white"/>
</linearGradient>
<linearGradient id="paint12_linear_2_17" x1="283" y1="97.5" x2="172.5" y2="330" gradientUnits="userSpaceOnUse">
<stop stop-color="#191557"/>
<stop offset="1" stop-color="white"/>
</linearGradient>
<linearGradient id="paint13_linear_2_17" x1="283" y1="97.5" x2="172.5" y2="330" gradientUnits="userSpaceOnUse">
<stop stop-color="#191557"/>
<stop offset="1" stop-color="white"/>
</linearGradient>
<linearGradient id="paint14_linear_2_17" x1="283" y1="97.5" x2="172.5" y2="330" gradientUnits="userSpaceOnUse">
<stop stop-color="#191557"/>
<stop offset="1" stop-color="white"/>
</linearGradient>
<linearGradient id="paint15_linear_2_17" x1="283" y1="97.5" x2="172.5" y2="330" gradientUnits="userSpaceOnUse">
<stop stop-color="#191557"/>
<stop offset="1" stop-color="white"/>
</linearGradient>
<linearGradient id="paint16_linear_2_17" x1="283" y1="97.5" x2="172.5" y2="330" gradientUnits="userSpaceOnUse">
<stop stop-color="#191557"/>
<stop offset="1" stop-color="white"/>
</linearGradient>
<linearGradient id="paint17_linear_2_17" x1="283" y1="97.5" x2="172.5" y2="330" gradientUnits="userSpaceOnUse">
<stop stop-color="#191557"/>
<stop offset="1" stop-color="white"/>
</linearGradient>
<linearGradient id="paint18_linear_2_17" x1="283" y1="97.5" x2="172.5" y2="330" gradientUnits="userSpaceOnUse">
<stop stop-color="#191557"/>
<stop offset="1" stop-color="white"/>
</linearGradient>
<linearGradient id="paint19_linear_2_17" x1="283" y1="97.5" x2="172.5" y2="330" gradientUnits="userSpaceOnUse">
<stop stop-color="#191557"/>
<stop offset="1" stop-color="white"/>
</linearGradient>
<linearGradient id="paint20_linear_2_17" x1="283" y1="97.5" x2="172.5" y2="330" gradientUnits="userSpaceOnUse">
<stop stop-color="#191557"/>
<stop offset="1" stop-color="white"/>
</linearGradient>
<linearGradient id="paint21_linear_2_17" x1="283" y1="97.5" x2="172.5" y2="330" gradientUnits="userSpaceOnUse">
<stop stop-color="#191557"/>
<stop offset="1" stop-color="white"/>
</linearGradient>
<linearGradient id="paint22_linear_2_17" x1="283" y1="97.5" x2="172.5" y2="330" gradientUnits="userSpaceOnUse">
<stop stop-color="#191557"/>
<stop offset="1" stop-color="white"/>
</linearGradient>
<linearGradient id="paint23_linear_2_17" x1="283" y1="97.5" x2="172.5" y2="330" gradientUnits="userSpaceOnUse">
<stop stop-color="#191557"/>
<stop offset="1" stop-color="white"/>
</linearGradient>
<linearGradient id="paint24_linear_2_17" x1="283" y1="97.5" x2="172.5" y2="330" gradientUnits="userSpaceOnUse">
<stop stop-color="#191557"/>
<stop offset="1" stop-color="white"/>
</linearGradient>
<linearGradient id="paint25_linear_2_17" x1="283" y1="97.5" x2="172.5" y2="330" gradientUnits="userSpaceOnUse">
<stop stop-color="#191557"/>
<stop offset="1" stop-color="white"/>
</linearGradient>
<linearGradient id="paint26_linear_2_17" x1="283" y1="97.5" x2="172.5" y2="330" gradientUnits="userSpaceOnUse">
<stop stop-color="#191557"/>
<stop offset="1" stop-color="white"/>
</linearGradient>
<linearGradient id="paint27_linear_2_17" x1="283" y1="97.5" x2="172.5" y2="330" gradientUnits="userSpaceOnUse">
<stop stop-color="#191557"/>
<stop offset="1" stop-color="white"/>
</linearGradient>
</defs>
</svg>
