<?xml version="1.0" encoding="utf-8" ?><svg xmlns="http://www.w3.org/2000/svg" xmlns:xlink="http://www.w3.org/1999/xlink" width="1024" height="1024" viewBox="0 0 1024 1024"><path fill="#191557" d="M352.477 272.632C352.554 267.696 354.033 263.208 357.551 259.635C373.312 243.629 421.397 271.399 422.022 232.61C422.201 221.487 418.693 201.526 426.959 193.346C432.934 187.433 444.89 185.219 453.085 185.526C464.223 185.943 475.057 190.568 482.621 198.799C485.535 201.971 487.847 205.478 489.994 209.197C494.43 202.163 499.818 195.301 507.3 191.458C531.486 179.037 554.588 187.248 568.092 209.26C575.781 197.509 585.004 189.828 599.08 186.949C610.97 184.603 623.306 187.039 633.411 193.73C658.06 209.986 650.065 239.589 651.373 264.62C651.573 268.459 651.698 286.643 650.102 289.051C647.308 291.207 640.04 291.602 637.905 288.065C634.634 282.646 641.258 268.023 634.576 264.744C631.114 263.045 622.204 266.936 619.873 261.649C617.877 257.215 622.288 249.515 616.698 247.166C612.337 245.228 605.556 245.31 603.709 250.57C602.492 254.033 602.506 260.842 606.883 262.193C610.339 263.35 617.172 261.207 619.235 265.102C622.193 270.686 616.64 279.75 624.239 283.253C628.525 285.229 626.806 291.729 627.043 295.509C627.654 305.225 624.648 304.929 616.099 305.005C612.4 305.037 607.175 305.498 603.752 303.327C597.74 299.04 605.308 289.458 599.99 284.729C597.897 283.02 588.393 283.678 585.589 283.742C584.228 284.116 583.202 284.144 582.517 285.474C580.131 290.109 584.711 301.601 578.266 303.538C575.479 304.376 569.796 302.401 567.821 305.389C564.549 310.342 570.451 322.844 563.366 324.837C560.024 325.777 552.032 323.108 549.948 327.272C547.758 331.648 552.416 341.96 546.779 344.46C541.629 346.744 530.452 342.109 527.219 347.098C525.017 350.571 528.803 358.735 523.913 360.543C521.269 361.521 513.152 361.49 510.519 360.216C505.496 357.786 511.302 344.75 506.355 342.519C501.003 340.105 489.947 341.862 483.944 341.765C483.117 341.762 482.053 342.939 481.594 343.469C480.624 346.233 480.631 355.303 481.815 357.95C485.716 366.112 499.578 356.658 503.577 364.228C504.971 366.867 505.571 378.757 501.248 379.707C496.981 380.645 482.038 381.904 479.727 377.042C478.184 373.794 481.478 365.496 476.136 363.321C466.293 362.63 453.313 361.658 443.71 363.921C440.815 364.603 441.787 375.445 441.6 377.974C442.119 389.18 446.485 412.841 425.188 402.347C422.462 401.004 423.012 392.371 423.066 389.812C423.053 385.592 423.871 380.949 421.144 378.138C415.294 375.394 406.318 380.559 403.709 374.528C403.154 373.244 402.862 364.039 404.267 362.405C405.934 360.468 406.444 360.379 409.105 359.822C415.61 358.457 435.571 362.895 439.482 357.474C440.922 355.479 440.647 348.409 439.927 345.784C437.593 342.947 405.886 342.972 402.602 344.707C398.255 350.204 406.174 358.838 395.827 360.156C392.446 360.816 386.368 357.881 383.727 360.678C378.769 365.931 386.75 380.924 376.816 381.661C368.073 382.309 360.19 377.11 360.995 391.237C361.185 394.585 361.062 398.336 361.573 401.93C358.433 403.578 354.227 405.027 352.594 407.563C352.541 411.37 352.105 429.268 352.881 431.562C353.279 434.742 353.114 441.996 352.937 445.391C352.133 448.874 352.913 452.809 352.27 456.518C351.599 451.017 352.024 431.087 352.028 424.515L352.037 359.101L351.999 301.428C351.991 295.423 351.622 277.811 352.392 272.929L352.477 272.632Z"/><defs><linearGradient id="gradient_0" gradientUnits="userSpaceOnUse" x1="466.70267" y1="406.87054" x2="468.31522" y2="273.08862"><stop offset="0" stop-color="#863D3D"/><stop offset="1" stop-color="#010C58"/></linearGradient></defs><path fill="url(#gradient_0)" d="M352.477 272.632L353.363 273.901C354.742 273.628 355.742 272.91 355.488 272.971C360.516 271.752 372.963 272.367 378.184 272.26C379.583 273.603 380.069 274.572 381.831 274.725C388.271 275.282 395.005 274.766 401.422 275.042C420.609 275.867 439.23 276.964 458.493 276.535C463.789 276.417 471.687 275.707 476.486 275.925C485.066 276.314 492.459 277.374 501.311 277.214C508.343 277.086 513.933 276.27 520.703 275.883C530.946 275.421 541.132 276.105 551.339 276.616C559.115 277.005 567.191 276.354 574.906 277.701C578.244 278.283 581.84 280.018 583.79 282.671C584.281 283.341 584.819 283.526 585.589 283.742C584.228 284.116 583.202 284.144 582.517 285.474C580.131 290.109 584.711 301.601 578.266 303.538C575.479 304.376 569.796 302.401 567.821 305.389C564.549 310.342 570.451 322.844 563.366 324.837C560.024 325.777 552.032 323.108 549.948 327.272C547.758 331.648 552.416 341.96 546.779 344.46C541.629 346.744 530.452 342.109 527.219 347.098C525.017 350.571 528.803 358.735 523.913 360.543C521.269 361.521 513.152 361.49 510.519 360.216C505.496 357.786 511.302 344.75 506.355 342.519C501.003 340.105 489.947 341.862 483.944 341.765C483.117 341.762 482.053 342.939 481.594 343.469C480.624 346.233 480.631 355.303 481.815 357.95C485.716 366.112 499.578 356.658 503.577 364.228C504.971 366.867 505.571 378.757 501.248 379.707C496.981 380.645 482.038 381.904 479.727 377.042C478.184 373.794 481.478 365.496 476.136 363.321C466.293 362.63 453.313 361.658 443.71 363.921C440.815 364.603 441.787 375.445 441.6 377.974C442.119 389.18 446.485 412.841 425.188 402.347C422.462 401.004 423.012 392.371 423.066 389.812C423.053 385.592 423.871 380.949 421.144 378.138C415.294 375.394 406.318 380.559 403.709 374.528C403.154 373.244 402.862 364.039 404.267 362.405C405.934 360.468 406.444 360.379 409.105 359.822C415.61 358.457 435.571 362.895 439.482 357.474C440.922 355.479 440.647 348.409 439.927 345.784C437.593 342.947 405.886 342.972 402.602 344.707C398.255 350.204 406.174 358.838 395.827 360.156C392.446 360.816 386.368 357.881 383.727 360.678C378.769 365.931 386.75 380.924 376.816 381.661C368.073 382.309 360.19 377.11 360.995 391.237C361.185 394.585 361.062 398.336 361.573 401.93C358.433 403.578 354.227 405.027 352.594 407.563C352.541 411.37 352.105 429.268 352.881 431.562C353.279 434.742 353.114 441.996 352.937 445.391C352.133 448.874 352.913 452.809 352.27 456.518C351.599 451.017 352.024 431.087 352.028 424.515L352.037 359.101L351.999 301.428C351.991 295.423 351.622 277.811 352.392 272.929L352.477 272.632Z"/><path fill="#A0393A" d="M441.6 377.974C442.119 389.18 446.485 412.841 425.188 402.347C422.462 401.004 423.012 392.371 423.066 389.812C424.364 391.927 424.198 394.633 424.358 397.227C429.796 396.968 434.699 397.519 440.755 397.173C440.667 393.082 441.283 382.269 441.6 377.974Z"/><path fill="#B17872" d="M352.392 272.929C352.771 287.472 352.412 303.105 352.421 317.739L352.594 407.563C352.541 411.37 352.105 429.268 352.881 431.562C353.279 434.742 353.114 441.996 352.937 445.391C352.133 448.874 352.913 452.809 352.27 456.518C351.599 451.017 352.024 431.087 352.028 424.515L352.037 359.101L351.999 301.428C351.991 295.423 351.622 277.811 352.392 272.929Z"/><defs><linearGradient id="gradient_1" gradientUnits="userSpaceOnUse" x1="449.18921" y1="636.94324" x2="386.02872" y2="413.39511"><stop offset="0" stop-color="#FF5327"/><stop offset="1" stop-color="#D84931"/></linearGradient></defs><path fill="url(#gradient_1)" d="M361.573 401.93C368.232 410.516 379.539 396.298 381.804 410.555C382.619 415.686 381.837 421.245 382.095 426.428C382.03 431.6 382.228 437.076 381.962 442.227C383.05 462.935 366.077 444.38 364.543 459.222C363.823 466.181 364.845 471.112 372.385 470.135C394.99 470.398 367.895 447.218 396.836 450.166C403.936 450.738 414.759 448.995 421.39 450.982C426.73 452.583 420.209 463.978 425.69 467.736C431.465 471.695 445.733 464.191 446.496 472.732C448.621 496.549 446.692 492.817 426.632 493.155C416.877 486.924 430.834 471.099 415.696 471.579C412.168 471.669 408.512 471.558 404.975 471.498C402.281 474.636 402.678 476.27 402.69 480.391C402.242 480.681 400.713 481.736 400.318 481.833C400.191 480.982 400.168 479.378 399.597 479.153C395.677 477.605 386.364 478.492 382.063 478.474L382.412 496.105C384.015 496.252 386.812 496.241 387.976 496.984C387.655 502.702 387.728 506.861 387.901 512.544C397.328 504.028 413.139 505.333 424.841 505.36L447.925 505.42L448.042 495.771L465.542 495.831C465.542 500.161 464.851 508.924 467.037 512.008C468.669 512.78 467.896 512.769 469.411 512.338C470.416 510.452 470.097 507.51 470.092 505.213C478.669 504.996 487.248 504.917 495.827 504.976C496.305 545.006 495.979 585.471 496.016 625.539L459.645 625.563L459.526 617.285C454.618 617.091 450.505 617.002 445.577 617.091L445.599 625.61L429.476 625.757L429.453 616.539C425.011 616.511 420.437 616.423 416.007 616.513L415.878 626.02L401.686 625.982C401.503 620.879 401.443 615.773 401.508 610.667L388.012 610.505L387.889 598.02C383.376 597.806 379.152 597.552 374.624 597.731C374.646 600.143 374.717 602.76 374.685 605.156C357.979 605.035 360.588 605.831 360.482 589.698L375.237 589.215L375.322 579.644C375.221 578.305 375.203 578.16 374.838 576.871C372.197 574.765 368.088 575.692 364.559 575.951L364.555 583.856C360.001 583.744 355.446 583.698 350.891 583.719L350.654 571.007L361.271 570.724C361.233 567.319 361.346 563.68 361.392 560.255C357.923 559.982 354.001 560.072 350.483 560.073L350.455 543.345L358.81 543.013C360.899 531.389 360.418 531.896 372.321 532.045C372.219 529.069 372.401 525.185 372.46 522.139C376.615 520.53 378.079 519.393 381.372 516.658C377.431 516.48 373.433 516.383 369.485 516.252C369.28 513.172 369.124 510.088 369.018 507.003C365.956 509.117 364.305 510.622 361.948 513.455L362.374 529.103C356.231 529.081 350.087 529.1 343.943 529.162C343.752 523.03 343.57 517.564 343.805 511.43C346.738 511.455 349.441 511.307 352.366 511.154C352.666 499.18 352.207 484.773 352.009 472.683C348.287 472.583 344.328 472.64 340.584 472.628L340.578 456.509L352.27 456.518C352.913 452.809 352.133 448.874 352.937 445.391C353.114 441.996 353.279 434.742 352.881 431.562C352.105 429.268 352.541 411.37 352.594 407.563C354.227 405.027 358.433 403.578 361.573 401.93Z"/><path fill="#A0393A" d="M361.573 401.93C368.232 410.516 379.539 396.298 381.804 410.555C382.619 415.686 381.837 421.245 382.095 426.428C382.03 431.6 382.228 437.076 381.962 442.227C380.022 437.812 382.556 421.624 380.729 416.991L380.138 417.061C378.633 417.239 371.11 418.03 370.304 418.719C367.526 421.094 360.518 427.404 358.368 430.13C362.725 432.229 370.102 427.83 367.984 436.389L367.086 436.927C367.137 435.123 367.429 433.8 366.445 432.368C363.396 430.466 357.235 431.527 352.881 431.562C352.105 429.268 352.541 411.37 352.594 407.563C354.227 405.027 358.433 403.578 361.573 401.93Z"/><path fill="#FDFCFA" d="M375.606 562.081C380.844 562.083 388.398 561.892 393.479 562.235L393.493 579.486C387.437 579.632 381.379 579.685 375.322 579.644C375.603 573.794 375.698 567.937 375.606 562.081Z"/><path fill="#FDFCFA" d="M399.549 454.938C404.806 454.621 410.651 454.882 415.961 454.997C416.06 460.184 416.041 465.373 415.904 470.56L415.696 471.579C412.168 471.669 408.512 471.558 404.975 471.498L404.858 470.829C402.696 471.028 401.914 471.293 400.352 470.338C398.437 466.621 399.468 459.674 399.549 454.938Z"/><path fill="#B17872" d="M404.858 470.829C407.368 470.373 413.091 470.549 415.904 470.56L415.696 471.579C412.168 471.669 408.512 471.558 404.975 471.498L404.858 470.829Z"/><path fill="#FDFCFA" d="M352.881 431.562C357.235 431.527 363.396 430.466 366.445 432.368C367.429 433.8 367.137 435.123 367.086 436.927L366.934 445.416L352.937 445.391C353.114 441.996 353.279 434.742 352.881 431.562Z"/><path fill="#FDFCFA" d="M397.682 511.363C403.391 511.315 409.395 511.466 415.126 511.522C415.272 517.393 415.517 523.159 415.139 529.024L397.745 529.035C397.575 523.146 397.554 517.253 397.682 511.363Z"/><path fill="#FDFCFA" d="M429.344 548.744C431.981 548.712 434.74 548.801 437.387 548.843C437.468 554.344 437.224 560.459 437.106 566.013L428.125 566.278L419.618 566.414C419.579 560.558 419.621 554.701 419.746 548.847L429.344 548.744Z"/><path fill="#FDFCFA" d="M389.963 537.877L407.593 538.013C407.622 543.787 407.571 549.562 407.44 555.335C401.805 555.465 396.012 555.377 390.365 555.359C389.957 550.088 390.038 543.284 389.963 537.877Z"/><path fill="#FDFCFA" d="M409.585 591.05C414.727 590.993 419.869 590.996 425.01 591.058L425.069 606.496L409.666 606.638C409.539 601.531 409.603 596.178 409.585 591.05Z"/><path fill="#FDFCFA" d="M356.701 478.731C361.78 478.586 365.805 478.651 370.851 479.035C370.93 481.99 371.828 491.854 369.92 493.386C365.293 493.522 360.378 493.448 355.728 493.459C355.602 489.472 355.252 483.084 355.781 479.329L356.701 478.731Z"/><path fill="#FDFCFA" d="M435.026 523.941C439.955 523.865 445.043 523.964 449.985 523.998L449.939 538.506C444.898 538.626 439.855 538.688 434.812 538.693C434.8 533.866 434.952 528.787 435.026 523.941Z"/><path fill="#FDFCFA" d="M432.498 578.958L446.989 578.907L446.933 593.504L432.516 593.53L432.498 578.958Z"/><defs><linearGradient id="gradient_2" gradientUnits="userSpaceOnUse" x1="550.94434" y1="503.39966" x2="558.41125" y2="626.71552"><stop offset="0" stop-color="#542F49"/><stop offset="1" stop-color="#010959"/></linearGradient></defs><path fill="url(#gradient_2)" d="M506.626 505.115L558.3 505.016C574.748 505.005 587.09 504.516 603.447 506.654C615.251 509.675 621.44 512.999 631.043 521.034C635.911 525.518 638.643 528.62 642.257 534.159C657.728 557.866 653.329 593.121 630.932 611.095C620.456 618.795 615.94 620.812 603.478 624.353C596.074 626.298 574.025 625.725 565.371 625.725L506.869 625.666C507.262 585.852 506.748 544.984 506.626 505.115Z"/><path fill="#F7D607" d="M603.447 506.654C615.251 509.675 621.44 512.999 631.043 521.034C635.911 525.518 638.643 528.62 642.257 534.159C657.728 557.866 653.329 593.121 630.932 611.095C620.456 618.795 615.94 620.812 603.478 624.353C603.263 585.121 603.252 545.887 603.447 506.654Z"/><path fill="#191557" d="M630.932 611.095C630.699 581.774 630.466 550.302 631.043 521.034C635.911 525.518 638.643 528.62 642.257 534.159C657.728 557.866 653.329 593.121 630.932 611.095Z"/><path fill="#191557" d="M173.445 701.014C193.925 701.417 223.299 697.415 238.831 712.648C253.676 727.208 252.513 751.756 238.608 766.651C226.009 778.142 211.873 777.59 196.072 777.525L173.491 777.467L173.445 701.014Z"/><path fill="#FDFCFA" d="M187.171 712.673C206.735 712.76 235.365 709.962 236.076 738.528C236.291 747.165 234.384 752.657 228.216 758.964C217.07 767.991 201.181 766.069 187.271 765.974L187.171 712.673Z"/><defs><linearGradient id="gradient_3" gradientUnits="userSpaceOnUse" x1="509.58633" y1="485.92459" x2="496.32739" y2="407.31253"><stop offset="0" stop-color="#FC5228"/><stop offset="1" stop-color="#AE3C39"/></linearGradient></defs><path fill="url(#gradient_3)" d="M454.209 407.633C453.878 385.481 451.165 384.854 474.34 385.837C476.115 385.912 477.157 386.134 478.518 387.229C481.667 392.141 475.96 398.839 483.269 400.82C490.479 402.774 506.734 396.085 503.75 409.695C504.056 421.906 511.023 415.532 517.909 417.094C525.05 418.713 519.1 430.832 522.215 434.992C524.713 438.329 533.407 435.661 537.142 436.484C548.092 437.737 538.89 452.504 543.997 457.959C549.095 462.717 560.461 456.116 564.924 461.188C566.704 463.096 566.757 477.395 563.814 477.749C553.377 479.003 532.6 479.034 522.842 477.57C516.865 476.674 522.58 446.861 519.165 442.332C516.203 438.403 511.558 441.191 507.251 440.189C503.514 436.964 507.234 433.528 504.75 428.08C501.969 425.765 483.836 427.023 478.819 426.628C462.167 424.934 480.583 456.955 464.455 455.969C459.33 455.656 442.038 458.64 444.281 450.648C445.246 447.21 449.62 449.113 452.492 447.561C455.269 444.589 454.358 434.85 454.317 430.586C454.21 422.935 454.174 415.284 454.209 407.633Z"/><path fill="#A0393A" d="M454.209 407.633C453.878 385.481 451.165 384.854 474.34 385.837C476.115 385.912 477.157 386.134 478.518 387.229C481.667 392.141 475.96 398.839 483.269 400.82C490.479 402.774 506.734 396.085 503.75 409.695C503.459 410.864 503.263 411.957 503.15 413.156C501.368 413.004 497.192 408.076 495.95 408.705C487.724 412.876 483.247 411.404 474.283 411.35C468.844 411.317 461.175 417.906 455.369 416.437C454.281 413.815 455.475 409.739 454.209 407.633Z"/><path fill="#191557" d="M315.267 719.172C325.032 717.999 331.983 721.24 338.711 728.041L339.009 719.645L351.491 719.606L351.522 755.148C351.525 761.95 351.856 769.612 350.995 776.283C347.4 804.142 309.927 803.666 291.914 791.385L296.149 784.228L297.419 781.953C298.781 781.421 300.437 782.619 302.07 783.466C307.951 786.574 313.357 788.233 319.992 788.225C335.208 788.206 338.508 780.479 338.453 766.913C327.693 776.8 311.65 777.962 299.762 769.459C293.729 765.155 289.704 758.584 288.61 751.255C287.487 743.722 289.541 736.062 294.282 730.102C299.863 722.97 306.611 720.22 315.267 719.172Z"/><path fill="#FDFCFA" d="M315.964 730.062C320.646 729.813 324.06 729.576 328.544 731.55C332.886 733.44 336.233 737.067 337.768 741.546C341.34 752.09 334.831 760.32 324.976 763.482C319.867 764.287 314.831 764.154 310.161 761.676C306.197 759.611 303.244 756.021 301.983 751.733C298.722 740.71 305.613 732.777 315.964 730.062Z"/><path fill="#191557" d="M405.408 701.243C418.643 701.272 445.377 699.083 454.968 706.772C475.586 723.301 466.185 750.72 440.448 755.007C434.094 755.867 421.52 755.57 414.804 755.579C414.835 762.908 414.824 770.238 414.769 777.567L401.28 777.562C401.455 752.339 401.447 727.116 401.255 701.893C402.386 701.004 403.863 701.25 405.408 701.243Z"/><path fill="#FDFCFA" d="M414.773 712.675C422.588 712.568 430.799 712.217 438.54 713.161C452.127 714.816 456.981 729.419 447.852 739.388C438.894 745.639 426.088 743.976 414.895 743.968L414.773 712.675Z"/><path fill="#191557" d="M717.593 729.108C727.54 718.214 744.966 714.447 756.816 725.456C764.921 732.987 763.603 747.723 763.55 758.041L763.52 777.493L750.514 777.52C750.467 768.509 752.688 740.717 747.082 734.475C744.675 731.795 741.112 730.547 737.576 730.408C733.314 730.24 728.756 731.603 725.65 734.615C719.272 740.799 721.352 756.191 721.42 764.625L721.377 777.512L708.238 777.478C708.393 765.677 708.762 753.26 707.806 741.551C707.31 735.489 701.745 730.689 695.714 730.664C677.628 730.587 678.067 746.515 678.552 759.942C678.75 765.397 678.576 771.948 678.554 777.51L665.537 777.515L665.543 719.676L678.272 719.64L678.277 727.266C684.17 721.168 688.062 719.911 696.348 719.216C706.486 718.569 711.425 721.423 717.593 729.108Z"/><path fill="#191557" d="M571.539 719.169C572.857 719.041 574.177 718.949 575.5 718.894C583.092 718.636 590.576 719.896 596.221 725.477C599.113 728.392 601.163 732.035 602.155 736.02C604.022 743.244 603.381 768.664 603.419 777.501L591.491 777.481L591.319 770.672C580.798 780.231 564.421 781.349 554.014 770.923C549.656 764.17 549.065 755.921 555.003 750.019C563.287 741.784 579.909 743.929 590.782 743.636C587.581 725.008 570.243 727.787 557.652 735.353L552.969 725.811C559.67 721.737 563.872 720.329 571.539 719.169Z"/><path fill="#FDFCFA" d="M570.087 752.588C577.073 752.265 583.48 752.353 590.481 752.448C590.465 754.776 590.387 757.164 590.338 759.497C588.089 763.539 586.551 764.81 582.632 767.115C564.444 773.657 556.104 756.947 570.087 752.588Z"/><path fill="#191557" d="M797.903 719.179C816.779 716.896 829.666 725.278 829.532 745.213C829.46 755.91 829.514 766.826 829.477 777.541L817.489 777.552L817.338 770.588C807.659 780.147 790.308 781.151 780.498 771.199C777.442 766.729 776.642 764.048 777.27 758.572C779.662 737.699 812.05 746.689 816.365 743.098C816.656 740.954 816.001 737.885 814.821 736.142C807.373 725.142 792.142 730.517 783.61 735.522L778.986 726.062C785.447 721.788 790.369 720.316 797.903 719.179Z"/><path fill="#FDFCFA" d="M796.417 752.683C803.101 752.338 809.802 752.485 816.497 752.542L816.387 759.582C813.777 763.913 812.874 764.736 808.55 767.205C789.577 772.598 782.678 757.152 796.417 752.683Z"/><path fill="#191557" d="M478.508 696.992L491.963 696.97L492.035 727.124C497.93 721.97 502.89 719.067 510.721 718.904C535.543 718.435 538.444 737.196 537.271 757.062C536.933 762.798 537.251 771.613 537.339 777.518L524.355 777.496L524.306 751.027C524.296 745.195 524.537 738.926 520.254 734.389C514.143 727.917 502.88 729.094 496.848 734.975C494.901 736.845 493.49 739.202 492.762 741.802C491.283 747.121 491.928 770.228 491.956 777.483L478.59 777.434C478.838 769.068 478.55 759.878 478.544 751.405L478.508 696.992Z"/><path fill="#191557" d="M419.986 191.967C419.879 192.69 419.925 192.757 419.603 193.365C414.049 203.886 415.233 218.753 415.504 230.454C415.957 250.034 406.897 247.882 390.629 248.213C380.67 248.416 369.574 246.902 359.956 251.036L359.97 250.448C366.407 242.999 376.024 234.781 383.209 227.759C395.406 215.839 407.538 203.586 419.986 191.967Z"/><path fill="#83343E" d="M557.27 343.188C560.327 343.245 563.538 342.746 565.268 345.776C567.196 349.154 566.635 352.608 565.828 356.193C564.824 360.65 561.868 358.73 558.555 360.621C557.04 362.599 557.223 364.308 557.259 366.659C556.784 376.537 564.972 370.872 568.118 374.315C570.859 377.315 570.368 395.608 567.254 398.423C563.537 399.288 553.666 399.138 549.782 398.118C547.192 392.959 549.947 387.409 548.245 383.702C544.76 376.804 535.751 382.52 531.035 379.727C526.983 377.231 526.941 364.411 529.642 361.373C533.43 357.902 541.212 360.132 545.944 359.665C557.752 358.498 543.331 343.998 557.27 343.188Z"/><path fill="#44254C" d="M585.11 306.133C589.249 306.004 596.104 305.463 599.772 306.685C602.947 309.832 601.563 346.576 601.021 353.316C600.702 357.29 586.15 356.174 582.875 356.112C580.698 356.076 579.668 356.164 577.82 355.149C575.301 352.304 576.675 348.548 575.799 344.116C572.762 339.997 571.235 342.056 568.285 339.744C566.838 337.093 567.113 331.234 567.702 328.748C568.77 324.236 576.367 327.197 580.889 325.275C585.034 320.527 578.868 309.357 585.11 306.133Z"/><path fill="#83343E" d="M611.308 358.083C615.941 357.809 644.338 357.056 646.676 358.308C648.391 359.226 649.318 360.613 649.745 362.468C650.294 364.857 650.231 369.482 648.477 371.43C646.022 374.158 637.739 372.735 634.266 372.546C630.953 372.366 625.89 371.674 623.408 374.419C621.727 376.277 622.081 378.993 622.118 381.309C622.158 384.664 622.64 390.732 621.838 393.59C616.715 395.908 609.955 396.043 604.384 395.657C596.238 395.094 597.495 385.906 598.426 380.242C598.457 374.57 605.145 378.241 606.911 375.976C611.483 370.115 604.351 363.478 611.308 358.083Z"/><defs><linearGradient id="gradient_4" gradientUnits="userSpaceOnUse" x1="409.74521" y1="429.6456" x2="396.70737" y2="379.10864"><stop offset="0" stop-color="#B33D37"/><stop offset="1" stop-color="#823741"/></linearGradient></defs><path fill="url(#gradient_4)" d="M386.582 381.179C389.648 381.137 392.546 381.057 395.625 381.341C410.875 382.746 392.012 403.149 409.511 402.494C419.451 402.123 424.643 401.076 423.929 413.333C423.617 418.671 425.243 425.295 419.878 428.463C416.02 428.459 404.374 429.453 401.934 427.846C397.238 424.751 400.448 413.061 398.99 407.267C393.086 399.18 380.88 412.521 382.306 392.55C382.643 387.819 380.713 382.911 386.582 381.179Z"/><path fill="#191557" d="M632.985 727.967C639.04 720.84 644.099 719.596 653.029 719.467L653.036 731.682C639.05 730.627 633.929 738.012 633.128 750.856L633.257 777.507L620.15 777.461C620.593 758.887 620.266 738.219 620.141 719.587L633.019 719.497L632.985 727.967Z"/><path fill="#191557" d="M263.009 719.595L275.793 719.651C276.286 738.659 275.889 758.468 275.998 777.569L262.981 777.578L263.009 719.595Z"/><path fill="#191557" d="M369.308 719.639L382.261 719.588L382.183 776.943C380.721 777.961 371.668 777.545 369.293 777.526L369.308 719.639Z"/><path fill="#E25235" d="M481.73 446.097C486.155 446.042 498.908 445.115 501.933 447.467C503.964 451.858 503.377 465.45 502.787 470.584C502.6 472.219 501.634 472.948 500.411 473.698C476.184 474.127 478.432 476.276 479.066 451.557C479.137 448.755 479.653 447.844 481.73 446.097Z"/><path fill="#A0393A" d="M507.954 380.06C527.352 379.373 527.23 377.054 528.352 395.848C529.837 396.978 531.838 398.243 533.419 399.309C533.905 403.287 535.11 408.257 531.685 411C517.132 413.111 524.696 408.649 518.73 401.355C516.278 398.357 508.252 401.161 506.529 398.609C504.458 395.539 505.517 388.068 505.428 384.337C505.435 382.346 506.541 381.261 507.954 380.06Z"/><path fill="#191557" d="M631.135 304.661C634.45 304.56 646.945 303.324 649.184 306.191C650.349 307.682 650.96 313.69 650.692 315.767C650.063 320.654 652.337 327.225 647.529 330.181C642.775 330.246 638.202 330.34 633.381 330.151C627.173 330.376 626.983 323.776 627.227 318.984C627.483 313.945 626.195 307.626 631.135 304.661Z"/><path fill="#E25235" d="M454.026 827.975C462.655 827.832 478.998 826.063 479.5 838.046C479.66 841.851 478.851 843.239 476.366 845.944C469.338 850.687 462.142 849.489 453.997 849.067C453.903 842.037 453.913 835.005 454.026 827.975Z"/><path fill="#FDFCFA" d="M459.942 832.074C466.623 831.989 479.391 833.704 471.632 843.213C467.773 845.157 464.209 844.94 459.927 845.045L459.942 832.074Z"/><path fill="#E25235" d="M535.64 832.53C539.079 832.274 539.885 832.607 543.113 833.728L544.037 834.054L546.632 832.349C548.625 832.19 547.673 832.022 549.55 833.059C550.921 836.222 550.791 846.103 549.57 849.455C548.691 851.923 546.802 853.9 544.376 854.89C539.516 856.893 533.775 855.302 529.171 853.374C533.572 845.703 541.375 857.079 544.38 847.438L543.769 847.089C538.533 848.794 531.617 849.288 529.035 843.159C528.213 841.25 528.275 839.074 529.205 837.215C530.59 834.426 532.908 833.537 535.64 832.53Z"/><path fill="#FDFCFA" d="M537.39 836.574C538.036 836.532 538.683 836.51 539.331 836.507C544.341 836.521 546.349 840.929 541.255 844.617C537.667 844.611 534.424 844.11 534.314 839.913C535.16 837.932 535.526 837.859 537.39 836.574Z"/><path fill="#E25235" d="M653.592 826.488C655.882 826.423 656.566 826.415 658.812 826.731C660.119 828.066 659.485 846.384 659.458 849.571C658.721 849.538 653.736 849.143 653.517 849.16C649.395 849.491 647.887 849.949 643.72 849.419C631.595 842.452 640.034 828.45 653.486 834.12L653.592 826.488Z"/><path fill="#FDFCFA" d="M647.272 836.64C648.973 836.062 650.853 836.475 652.156 837.712C653.458 838.948 653.968 840.805 653.478 842.534C652.989 844.262 651.582 845.576 649.825 845.947C647.322 846.475 644.841 844.962 644.165 842.496C643.488 840.029 644.85 837.462 647.272 836.64Z"/><path fill="#E25235" d="M569.405 827.864C575.114 827.712 598.284 825.64 589.131 841.192C587.059 844.712 578.73 843.319 575.306 844.402C575.406 846.064 575.645 847.188 574.997 848.707C573.247 849.657 571.528 849.241 569.277 849.186C569.185 846.767 569.203 845.33 569.379 842.917C569.334 837.899 569.343 832.881 569.405 827.864Z"/><path fill="#E25235" d="M569.277 849.186C569.185 846.767 569.203 845.33 569.379 842.917C572.255 843.123 571.226 845.076 575.306 844.402C575.406 846.064 575.645 847.188 574.997 848.707C573.247 849.657 571.528 849.241 569.277 849.186Z"/><path fill="#FDFCFA" d="M575.36 831.977C579.115 831.921 582.994 831.196 585.29 834.534C585.61 836.435 585.323 836.756 584.567 838.504C581.954 839.795 578.429 839.553 575.481 839.591L575.36 831.977Z"/><path fill="#A0393A" d="M579.226 400.718C582.964 400.649 592.55 400.021 596.053 401.639C597.916 402.499 598.733 407.352 598.36 409.389C597.581 413.649 597.57 415.055 593.125 415.5C587.96 415.45 579.954 416.287 575.429 414.38C571.889 412.889 572.661 404.424 574.869 402.101C576.143 400.76 577.549 400.881 579.226 400.718Z"/><path fill="#E25235" d="M317.503 525.658C323.491 525.641 329.478 525.668 335.466 525.738C335.523 531.035 335.8 538.59 335.429 543.685C329.744 543.958 323.279 543.706 317.533 543.613C317.404 537.629 317.394 531.642 317.503 525.658Z"/><path fill="#E25235" d="M231.182 827.464L236.695 827.603C240.008 833.919 243.983 840.945 247.06 847.408C247.785 848.931 247.424 849.099 246.878 850.136C245.222 850.221 241.809 848.398 240.742 847.166C239.05 845.212 239.766 845.203 237.125 844.857L228.347 844.714C227.416 846.624 227.164 847.43 225.734 848.939C223.871 849.851 222.009 849.477 219.859 849.356C223.047 842.515 227.624 834.27 231.182 827.464Z"/><path fill="#FDFCFA" d="M233.741 833.365C235.016 834.625 237.574 838.927 237.12 840.766L235.625 841.024C233.582 841.053 232.364 841.384 231.002 840.226C230.733 838.37 232.766 835.23 233.741 833.365Z"/><path fill="#E25235" d="M620.864 832.537C634.637 831.965 640.242 843.952 626.53 849.763C611.877 851.171 606.403 836.562 620.864 832.537Z"/><path fill="#FDFCFA" d="M621.942 836.477C622.525 836.508 623.121 836.543 623.699 836.628C625.37 836.857 626.862 837.796 627.79 839.204C629.727 842.145 627.152 844.357 624.816 845.637C624.381 845.637 623.946 845.629 623.511 845.613C617.503 845.366 616.03 840.227 621.942 836.477Z"/><path fill="#E25235" d="M753.15 832.583C767.696 831.849 772.525 845.047 758.437 849.518C744.679 850.498 739.13 837.875 753.15 832.583Z"/><path fill="#FDFCFA" d="M754.546 836.489C756.96 835.819 759.484 837.12 760.338 839.475C761.192 841.831 760.09 844.447 757.807 845.48C756.166 846.224 754.245 845.984 752.837 844.86C751.428 843.736 750.768 841.917 751.129 840.151C751.489 838.385 752.809 836.97 754.546 836.489Z"/><path fill="#E25235" d="M402.69 480.391L417.369 480.506C417.457 486.141 417.48 491.777 417.436 497.413C411.587 497.415 406.444 497.34 400.595 497.041C400.376 493.989 399.942 484.927 400.318 481.833C400.713 481.736 402.242 480.681 402.69 480.391Z"/><path fill="#E25235" d="M427.337 434.534C438.227 433.716 444.775 432.254 442.079 446.542C441.677 448.675 441.764 448.572 439.997 449.837C436.268 450.063 428.043 451.373 426 448.181C423.442 444.187 423.86 437.838 427.337 434.534Z"/><path fill="#E25235" d="M381.287 832.567C386.022 832.271 391.65 832.371 393.333 837.616C394.104 840.019 394.499 847.035 393.467 849.193C389.26 849.233 381.548 849.904 378.036 848.796C376.254 847.176 374.879 845.819 375.217 843.237C377.655 838.775 384.257 840.21 387.927 838.733C387.134 836.074 379.514 838.056 376.091 835.622C377.126 833.711 379.066 833.41 381.287 832.567Z"/><path fill="#FDFCFA" d="M381.606 842.629C383.54 842.466 386.053 841.994 387.604 842.914C388.036 844.541 387.997 843.675 387.17 845.593C385.2 845.993 382.996 846.588 381.276 845.479C380.805 843.697 380.828 844.622 381.606 842.629Z"/><path fill="#E25235" d="M340.756 832.565C346.864 832.17 352.367 833.829 354.286 840.364C352.882 845.161 342.769 840.817 339.275 843.012C340.817 846.57 346.017 845.626 348.86 844.536L350.002 844.513C351.228 845.391 351.329 845.286 351.801 846.672C349.442 851.512 336.803 849.602 334.534 845.832C330.527 839.174 335.642 834.967 340.756 832.565Z"/><path fill="#FDFCFA" d="M341.115 836.546C343.898 836.168 346.811 836.318 348.402 838.97L347.524 839.485C345.313 839.495 341.096 839.965 339.52 839.076C339.542 837.678 339.806 837.905 341.115 836.546Z"/><path fill="#E25235" d="M424.767 832.571C432.824 832.295 435.594 834.907 437.228 842.434C433.684 842.602 425.445 841.899 422.879 843.197L422.981 844.006C426.698 846.83 428.772 845.711 432.885 844.274C434.309 845.583 434.559 845.342 434.779 846.836C431.339 851.806 418.091 849.763 416.592 844.037C414.895 837.557 419.149 834.225 424.767 832.571Z"/><path fill="#FDFCFA" d="M424.915 836.028C427.618 836.11 429.466 836.458 431.385 838.526L431.235 839.247L429.625 839.574C427.358 839.592 424.082 839.99 422.383 838.903C422.919 837.274 423.354 837.357 424.915 836.028Z"/><path fill="#E25235" d="M463.303 478.224C465.007 478.221 470.487 478.017 471.472 479.051C474.547 482.277 473.865 489.229 471.42 492.258C469.949 493.29 468.835 493.066 467.008 493.066C464.061 493.14 459.457 493.675 457.183 491.981C455.632 488.295 455.031 482.614 457.944 479.33C458.931 478.218 461.777 478.297 463.303 478.224Z"/><path fill="#E25235" d="M517.367 832.667L522.732 832.775C522.826 836.352 523.69 847.17 522.038 849.621C518.987 850.357 519.541 849.266 517.391 848.935C510.657 847.9 506.815 853.604 502.789 844.12C502.509 840.191 501.127 835.382 504.473 832.955C505.97 832.739 506.448 832.512 507.855 833.016C509.713 836.687 506.197 843.227 511.299 845.564C519.333 845.088 515.847 838.137 517.367 832.667Z"/><path fill="#E25235" d="M680.566 832.673C682.459 832.604 683.893 832.336 685.568 833.139C686.708 834.542 686.422 835.974 686.423 837.875C686.492 841.339 686.719 845.721 686.278 849.058L685.327 849.746C681.309 850.027 682.502 847.602 677.951 849.063C664.447 853.399 665.896 839.322 666.113 832.735L671.569 832.749C671.566 836.774 670.874 844.454 675.918 845.87C681.144 844.957 680.591 836.43 680.566 832.673Z"/><path fill="#191557" d="M266.107 693.722C270.297 692.087 275.023 694.122 276.713 698.29C278.404 702.458 276.431 707.21 272.286 708.956C269.556 710.106 266.417 709.698 264.072 707.887C261.726 706.077 260.537 703.144 260.958 700.211C261.379 697.278 263.346 694.799 266.107 693.722Z"/><path fill="#191557" d="M372.758 693.633C375.532 692.606 378.643 693.149 380.905 695.055C383.166 696.961 384.229 699.935 383.687 702.843C383.146 705.75 381.083 708.142 378.287 709.106C374.031 710.572 369.388 708.341 367.874 704.102C366.359 699.864 368.537 695.196 372.758 693.633Z"/><path fill="#E25235" d="M556.935 419.125C559.034 418.965 561.134 418.831 563.235 418.723C571.352 418.361 570.805 422.682 570.601 429.249C570.539 431.229 570.156 431.744 568.712 433.008C565.864 433.219 559.898 433.83 557.418 432.526C553.907 430.679 554.691 421.811 556.935 419.125Z"/><path fill="#E25235" d="M329.731 492.543L343.952 492.539C343.993 497.364 343.971 502.19 343.887 507.015L329.52 507.002C329.487 502.02 329.468 497.536 329.731 492.543Z"/><path fill="#E25235" d="M331.051 557.989L344.954 557.901L344.972 571.993L331.11 571.996L331.051 557.989Z"/><path fill="#E25235" d="M278.46 521.695L292.091 521.733C292.354 526.317 292.371 530.992 292.441 535.589L278.374 535.477C278.323 530.883 278.351 526.288 278.46 521.695Z"/><path fill="#E25235" d="M354.598 605.245L361.122 605.356L361.037 619.024L353.55 619.032L347.435 618.979C347.236 614.051 347.242 610.295 347.432 605.365L354.598 605.245Z"/><path fill="#E25235" d="M289.386 550.475L303.023 550.439L303.083 564.144C298.766 564.317 293.778 564.141 289.41 564.089C289.331 559.552 289.323 555.013 289.386 550.475Z"/><path fill="#E25235" d="M307.018 576.553L320.541 576.463C320.692 581.022 320.556 585.82 320.5 590.399L307.055 590.117L307.018 576.553Z"/><path fill="#E25235" d="M307.838 436.429L321.533 436.433C321.633 440.902 321.532 445.525 321.494 450.007L307.847 449.982L307.838 436.429Z"/><path fill="#E25235" d="M303.637 490.573C308.086 490.516 312.536 490.571 316.983 490.738L317.015 504.488L303.549 504.493C303.549 499.853 303.578 495.213 303.637 490.573Z"/><path fill="#E25235" d="M699.706 832.597C702.671 832.333 710.874 832.215 710.27 836.816C709.114 838.086 709.192 837.988 707.495 838.337C704.12 837.401 699.313 835.662 697.045 839.083C696.892 845.436 702.812 847.665 707.143 843.662C709.058 844.27 709.925 844.248 710.37 846.133C708.053 850.543 700.784 850.583 696.792 848.565C693.229 846.764 692.391 844.79 691.239 841.109L691.478 840.526C693.528 835.419 694.535 834.501 699.706 832.597Z"/><path fill="#E25235" d="M280.531 832.56C283.736 832.33 291.791 831.9 291.852 836.838C288.346 840.928 284.696 834.933 279.822 837.531C276.14 842.614 282.136 848.996 288.625 843.724C289.648 843.981 291.913 845.26 292.262 846.379C282.388 857.587 262.277 840.252 280.531 832.56Z"/><path fill="#E25235" d="M307.389 615.633L320.788 615.541C320.923 619.941 320.89 624.571 320.929 628.992L307.406 628.92C307.34 624.491 307.334 620.062 307.389 615.633Z"/><path fill="#44254C" d="M609.083 331.685C617.352 331.269 623.681 332.28 619.801 342.969C619.362 344.177 618.46 344.312 617.38 344.689C613.496 345.076 610.31 344.828 606.478 344.363C606.004 339.871 604.391 333.894 609.083 331.685Z"/><path fill="#E25235" d="M507.651 485.548C510.417 485.383 516.503 484.661 518.745 485.854C522.337 487.764 521.522 494.851 519.536 497.825C515.72 498.261 511.895 499.051 508.29 497.154C504.559 495.19 505.869 488.486 507.651 485.548Z"/><path fill="#E25235" d="M771.934 832.799C773.034 832.758 776.043 832.542 777.199 832.998C778.37 833.46 776.326 833.255 778.189 834.282L780.111 833.41C781.233 832.894 781.649 832.646 782.922 832.538C794.08 831.593 792.74 841.906 792.58 849.358L786.821 849.373C786.853 847.147 786.847 844.9 786.909 842.675C787.099 835.842 779.98 834.198 777.558 841.382C776.318 842.253 775.372 841.918 773.563 841.581C773.024 841.476 772.486 841.363 771.951 841.243L771.934 832.799Z"/><defs><linearGradient id="gradient_5" gradientUnits="userSpaceOnUse" x1="404.78595" y1="829.88782" x2="405.71198" y2="848.75946"><stop offset="0" stop-color="#DC371A"/><stop offset="1" stop-color="#E55F40"/></linearGradient></defs><path fill="url(#gradient_5)" d="M401.059 829.122C402.973 829.022 404.91 828.743 406.684 829.367C406.902 831.685 406.726 831.454 407.991 832.852C410.583 832.936 410.951 832.395 412.524 834.244L412.385 835.736C411.222 836.001 410.277 836.221 409.18 836.709C406.505 837.901 406.67 843.323 408.129 845.205C412.133 845.746 412.096 845.118 413 848.664C411.298 850.013 409.118 849.825 407.334 849.655C398.397 848.805 403.062 842.381 400.78 836.906C400.577 836.419 399.518 837.623 398.094 835.876C398.109 834.412 397.982 834.407 398.767 833.213L400.939 832.849C401.68 831.456 401.278 831.045 401.059 829.122Z"/><path fill="#E25235" d="M375.457 611.587L388.063 611.589C388.152 615.809 388.075 620.247 388.069 624.486L375.404 624.332C375.354 620.124 375.431 615.804 375.457 611.587Z"/><path fill="#E25235" d="M299.273 835.046C303.67 832.278 305.006 832.26 310.25 832.529C313.212 834.151 315.862 835.991 317.591 839.002C317.73 840.767 317.933 839.94 316.713 841.495C312.883 843.225 307.79 842.633 303.497 842.497L303.648 841.789L303.219 841.292C303.004 840.077 303.189 840.44 302.404 839.555C301.483 837.071 301.304 836.654 299.273 835.046Z"/><path fill="#FDFCFA" d="M302.404 839.555C304.112 834.867 307.881 836.07 311.409 837.799L311.668 838.852C309.794 840.175 304.893 839.645 302.404 839.555Z"/><path fill="#E25235" d="M599.447 832.539C601.805 832.849 600.846 832.373 602.521 833.811C605.239 832.937 606.53 832.059 608.863 833.896C609.485 838.282 605.639 836.964 603.376 838.965C602.468 840.778 602.516 841.336 602.475 843.375C602.581 845.844 603.105 847.779 601.653 849.405C599.819 849.7 599.039 849.545 597.223 849.375C596.148 848.105 596.657 836.167 596.705 833.489C597.577 832.62 597.973 832.821 599.447 832.539Z"/><path fill="#E25235" d="M495.866 832.389C497.237 832.574 497.162 832.675 498.236 833.602L498.295 834.555C497.348 836.259 495.456 836.973 493.477 838.117C489.931 840.166 492.134 843.92 491.137 848.966C489.85 849.736 487.756 849.462 486.142 849.423L485.858 849.132C485.189 846.717 485.35 835.813 485.712 833.066L487.08 832.442C489.102 832.543 489.303 832.779 491.168 833.793L491.703 834.09C493.096 833.536 494.484 832.969 495.866 832.389Z"/><path fill="#E25235" d="M299.273 835.046C301.304 836.654 301.483 837.071 302.404 839.555C303.189 840.44 303.004 840.077 303.219 841.292L303.648 841.789L303.497 842.497C302.737 843.113 303 842.703 302.83 843.797C306.546 847.24 312.337 843.319 315.35 846.226C312.816 854.86 287.455 847.149 299.273 835.046Z"/><path fill="#E25235" d="M359.37 832.718C361.432 832.574 362.499 832.484 364.541 832.631C365.866 833.497 365.382 832.891 365.766 834.709L367.294 837.06C362.294 841.656 367.775 847.442 362.667 849.749C360.966 849.648 360.963 849.756 359.476 849.002C359.12 847.825 359.369 835.074 359.37 832.718Z"/><defs><linearGradient id="gradient_6" gradientUnits="userSpaceOnUse" x1="252.84209" y1="846.24005" x2="265.86502" y2="840.8457"><stop offset="0" stop-color="#D93B22"/><stop offset="1" stop-color="#E16649"/></linearGradient></defs><path fill="url(#gradient_6)" d="M250.461 839.359C253.196 839.042 253.588 838.984 255.95 840.647C257.409 850.978 265.826 840.309 269.598 846.156C264.234 853.688 250.403 850.355 250.461 839.359Z"/><path fill="#E25235" d="M737.438 832.477L738.911 832.844C740.301 835.549 740.161 846.11 739.259 849.127L738.061 849.756C736.893 849.595 735.729 849.412 734.569 849.207L734.119 848.508C734.015 846.075 733.606 835.157 734.449 833.138L737.438 832.477Z"/><path fill="#E25235" d="M717.359 836.813C719.618 836.744 720.964 837.011 723.278 836.685C722.958 842.275 721.863 844.381 727.997 846.06C728.73 847.6 728.495 846.762 728.264 848.776C725.539 850.775 720.556 849.329 718.215 847.157C716.958 844.464 717.337 839.97 717.359 836.813Z"/><path fill="#E25235" d="M250.461 839.359C253.358 833.616 259.171 830.421 265.778 833.203C266.996 833.716 268.98 835.223 269.403 836.521C268.367 838.031 269.038 837.474 267.251 838.166C262.465 837.486 258.304 834.417 255.95 840.647C253.588 838.984 253.196 839.042 250.461 839.359Z"/><path fill="#E25235" d="M717.359 836.813C715.177 836.874 714.863 836.989 714.276 835.058C715.353 831.456 714.561 835.035 717.022 832.544C716.953 831.112 716.806 830.38 717.289 829.016C719 828.691 721.894 828.497 723.294 829.52C723.282 830.961 723.208 831.228 723.559 832.601C725.727 833.492 727.093 833.783 728.485 835.641C726.905 837.18 725.74 836.714 723.278 836.685C720.964 837.011 719.618 836.744 717.359 836.813Z"/><path fill="#E25235" d="M322.365 834.876C324.953 836.471 325.006 836.527 328.036 836.745C327.933 841.053 329.018 845.643 327.36 848.736C325.346 849.874 325.221 849.435 322.497 849.397L322.365 834.876Z"/><path fill="#E25235" d="M322.365 834.876L322.247 829.776C322.209 828.288 322.261 828.212 323.056 826.973C324.414 826.157 324.638 826.34 326.225 826.47C329.307 828.501 328.032 833.178 328.036 836.745C325.006 836.527 324.953 836.471 322.365 834.876Z"/><path fill="#E25235" d="M771.951 841.243C772.486 841.363 773.024 841.476 773.563 841.581C775.372 841.918 776.318 842.253 777.558 841.382C777.855 844.203 777.763 846.551 777.711 849.365L771.838 849.28L771.951 841.243Z"/><path fill="#E25235" d="M736.727 824.516C738.347 824.4 739.791 825.532 740.065 827.132C740.34 828.732 739.357 830.28 737.791 830.711C736.631 831.031 735.391 830.663 734.592 829.764C733.793 828.865 733.574 827.59 734.027 826.476C734.481 825.362 735.527 824.602 736.727 824.516Z"/><path fill="#E25235" d="M365.766 834.709C367.817 832.795 369.416 831.466 371.715 833.804C371.858 835.572 372.015 834.712 370.932 836.399C369.419 837.225 368.996 837.094 367.294 837.06L365.766 834.709Z"/><path fill="#F2E3DA" d="M382.412 496.105C386.196 495.678 394.343 495.578 398.057 496C396.471 496.404 389.522 497.292 387.976 496.984C386.812 496.241 384.015 496.252 382.412 496.105Z"/></svg>